<?xml version="1.0" standalone="no"?>
<!DOCTYPE svg PUBLIC "-//W3C//DTD SVG 20010904//EN"
 "http://www.w3.org/TR/2001/REC-SVG-20010904/DTD/svg10.dtd">
<svg version="1.0" xmlns="http://www.w3.org/2000/svg"
 width="686.000000pt" height="976.000000pt" viewBox="0 0 686.000000 976.000000"
 preserveAspectRatio="xMidYMid meet">

<g transform="translate(0.000000,976.000000) scale(0.100000,-0.100000)"
fill="#000000" stroke="none">
<path d="M273 9542 c-36 -3 -42 -7 -47 -30 -4 -15 -6 -373 -5 -797 3 -1419 0
-1736 -13 -1733 -7 2 -13 -2 -13 -7 0 -5 5 -9 10 -7 8 1 10 -666 8 -2191 -1
-1205 -3 -2718 -4 -3360 -1 -642 2 -1171 6 -1175 4 -4 1440 -8 3191 -9 l3184
-3 0 288 c1 158 1 328 1 377 0 50 0 479 0 955 0 1264 8 5492 13 6668 3 556 4
1012 3 1013 -1 1 -1386 3 -3077 6 -1691 2 -3106 5 -3145 6 -38 1 -89 1 -112
-1z m6039 -101 l208 -1 -5 -1237 c-6 -1279 -13 -4479 -16 -6644 l-2 -1236
-2721 2 c-1496 1 -2890 3 -3097 4 l-377 1 4 2148 c2 1181 3 2165 3 2187 -1 22
-1 78 -1 125 0 47 0 348 0 670 0 1344 3 2277 8 2455 2 105 3 291 2 415 -3 195
-2 583 1 996 l1 121 2893 -2 c1590 -1 2985 -3 3099 -4z"/>
<path d="M414 9318 c-3 -5 -5 -226 -4 -491 2 -265 0 -1148 -3 -1962 -3 -814
-6 -1896 -7 -2405 0 -509 -2 -1294 -3 -1745 -3 -1047 2 -2258 9 -2264 3 -3
1353 -6 3000 -7 l2994 -2 1 57 c0 31 2 1361 4 2956 2 1595 7 3567 11 4383 l7
1482 -334 1 c-1754 7 -5670 5 -5675 -3z m1759 -50 c23 0 47 1 52 1 6 1 449 1
985 0 536 -1 1462 -1 2056 1 595 1 1084 -2 1087 -7 10 -17 11 -1105 4 -2838
-4 -984 -8 -2721 -10 -3858 l-2 -2069 -827 3 c-455 2 -830 0 -834 -4 -4 -3
-10 -4 -15 -1 -4 2 -257 4 -561 4 l-553 0 -10 22 c-15 33 -39 37 -33 5 l5 -26
-1523 2 c-837 1 -1526 6 -1531 10 -9 9 -7 2993 2 3007 3 5 2 11 -3 14 -4 2 -7
184 -6 403 2 381 15 3860 18 4853 l1 475 805 2 c443 2 812 4 820 6 8 2 19 2
23 -1 4 -2 27 -4 50 -4z"/>
<path d="M577 9212 c-9 -2 -18 -11 -19 -20 -2 -19 -2 -144 -12 -4677 -3 -1716
-7 -3201 -7 -3300 -2 -384 2 -644 9 -649 12 -7 1568 -9 1580 -2 5 3 20 3 33 1
30 -7 4090 -8 4096 -2 2 3 3 112 2 243 -2 331 1 2055 8 4894 4 1323 6 2650 5
2950 -1 300 -2 548 -2 552 0 4 -849 8 -1887 8 -1039 0 -2316 2 -2839 3 -523 1
-958 1 -967 -1z m503 -131 c9 -23 20 -31 51 -36 46 -8 48 -14 14 -45 -19 -18
-25 -34 -25 -67 l0 -44 -31 17 c-29 15 -51 14 -94 -3 -16 -5 -17 -2 -11 32 6
32 4 41 -20 66 -29 30 -28 31 26 43 15 3 32 19 44 40 21 40 28 39 46 -3z
m1107 -33 c45 5 50 -15 14 -52 -27 -28 -30 -36 -24 -71 6 -37 5 -39 -10 -26
-10 7 -17 10 -17 7 0 -4 -9 -1 -21 8 -19 13 -24 12 -55 -6 -30 -18 -35 -18
-40 -4 -3 9 -3 28 0 42 5 20 1 33 -16 51 -19 20 -20 25 -8 33 8 5 23 10 32 10
10 0 30 19 44 41 l26 42 22 -39 c19 -34 26 -39 53 -36z m473 39 c11 -24 24
-34 53 -40 43 -10 46 -23 12 -56 -18 -17 -25 -34 -25 -62 l0 -39 -35 17 c-33
16 -37 16 -70 0 -20 -9 -38 -17 -40 -17 -3 0 -2 19 1 43 5 38 3 47 -21 73 -14
15 -23 29 -18 30 4 1 25 5 46 9 30 5 41 13 54 41 9 18 19 34 22 34 3 0 13 -15
21 -33z m524 -1 c12 -28 21 -35 55 -41 23 -4 41 -10 41 -14 0 -4 -11 -18 -25
-31 -19 -18 -25 -34 -25 -67 0 -24 -2 -43 -5 -43 -4 0 -20 7 -36 16 -28 14
-34 14 -71 0 l-39 -16 6 42 c6 38 3 46 -19 67 -14 14 -26 28 -26 31 0 4 18 10
39 14 31 5 44 14 61 41 12 19 23 35 26 35 2 0 10 -15 18 -34z m1059 -1 c11
-23 25 -36 44 -41 58 -12 58 -13 25 -47 -28 -29 -30 -37 -25 -75 l6 -43 -37
22 c-36 21 -39 21 -72 5 -46 -21 -55 -14 -42 31 10 36 8 39 -22 65 l-33 27 24
5 c13 3 33 7 44 8 11 2 29 20 40 41 11 20 23 37 26 37 3 0 13 -16 22 -35z
m587 -39 c22 -3 40 -10 40 -14 0 -5 -14 -21 -31 -38 -27 -25 -30 -34 -26 -70
l4 -41 -38 21 c-38 20 -40 20 -70 4 -45 -26 -52 -23 -44 22 5 32 3 45 -14 66
-22 28 -28 50 -12 39 5 -3 12 -1 16 4 3 5 14 8 25 6 15 -3 27 7 47 37 l26 42
18 -36 c15 -29 25 -36 59 -42z m470 35 c9 -23 20 -31 51 -36 46 -8 48 -14 14
-45 -19 -18 -25 -34 -25 -67 l0 -43 -34 17 c-32 15 -37 15 -69 -1 -48 -22 -50
-21 -42 25 6 36 4 44 -20 69 -29 30 -27 34 23 45 24 5 40 17 54 41 22 38 30
37 48 -5z m520 6 c10 -21 26 -35 45 -41 17 -5 37 -11 45 -13 11 -3 6 -12 -19
-33 -31 -26 -33 -31 -26 -69 7 -45 3 -48 -39 -26 -27 14 -34 14 -68 0 -21 -8
-40 -15 -42 -15 -2 0 0 18 4 41 7 37 5 43 -21 66 -32 29 -30 43 7 43 37 0 60
15 74 50 16 38 21 37 40 -3z m-4216 -2 c20 -35 34 -45 65 -45 38 0 38 -6 4
-42 -21 -22 -26 -36 -25 -68 l3 -40 -36 17 c-33 16 -37 16 -70 0 -20 -9 -38
-17 -40 -17 -3 0 -2 18 1 41 6 35 3 44 -20 68 -23 24 -25 29 -11 35 9 3 25 6
36 6 11 0 29 15 41 35 25 37 36 40 52 10z m2110 -4 c16 -31 34 -41 72 -41 32
0 30 -10 -6 -45 -26 -25 -29 -33 -24 -67 7 -43 5 -44 -37 -22 -28 14 -34 14
-71 -1 l-40 -16 7 42 c6 36 4 44 -21 70 -29 30 -28 31 28 43 17 4 34 18 43 36
19 38 30 38 49 1z m-2893 -344 l41 6 -16 -31 c-20 -38 -20 -55 -1 -92 l14 -28
-37 5 c-31 4 -41 0 -61 -21 -27 -29 -41 -33 -41 -13 0 29 -27 67 -60 83 l-35
17 26 11 c42 18 59 37 59 66 0 39 9 42 41 16 23 -20 36 -23 70 -19z m5037 29
c7 -7 7 -290 -1 -2336 -4 -943 -8 -2551 -9 -3572 l-3 -1858 -30 0 c-16 0 -427
-1 -912 -3 -606 -3 -883 -1 -886 6 -2 6 -8 7 -14 4 -7 -4 -692 -8 -1523 -8
-1151 -1 -1514 1 -1523 10 -9 9 -12 86 -11 279 4 914 6 1062 15 1068 6 4 7 10
0 17 -8 10 -7 2392 3 5889 l1 508 590 2 c978 5 4297 -1 4303 -6z m223 -12 c20
-22 30 -25 67 -21 46 5 50 -2 28 -43 -12 -22 -12 -28 4 -50 33 -46 30 -52 -29
-54 -43 -1 -56 -5 -65 -21 -6 -11 -12 -22 -14 -24 -5 -10 -31 35 -32 55 0 16
-12 28 -42 42 l-43 20 37 18 c32 15 38 23 44 61 3 24 9 43 13 43 4 0 18 -12
32 -26z m-5326 -484 c13 -14 31 -20 62 -20 23 0 43 -2 43 -5 0 -2 -7 -20 -16
-38 -15 -31 -15 -36 0 -65 21 -41 22 -41 -21 -35 -32 4 -43 0 -68 -23 l-30
-28 -10 39 c-7 27 -19 44 -43 58 l-33 20 36 24 c19 13 35 32 35 43 0 24 10 50
20 50 4 0 15 -9 25 -20z m5401 -66 c41 5 45 4 39 -12 -29 -68 -29 -70 -12 -96
25 -38 21 -44 -25 -39 -37 4 -47 1 -67 -21 -14 -14 -28 -26 -32 -26 -4 0 -10
18 -14 40 -6 34 -12 43 -41 55 -43 18 -43 27 1 48 30 14 35 22 35 50 0 47 9
51 41 21 25 -24 33 -26 75 -20z m-5337 -464 l41 0 -17 -35 c-16 -33 -16 -37 1
-71 l17 -36 -38 5 c-32 4 -43 0 -70 -26 -34 -32 -39 -29 -45 23 -2 16 -15 31
-40 45 l-37 21 37 19 c25 14 38 28 40 45 6 50 10 53 41 31 18 -13 45 -21 70
-21z m5262 -26 c21 -23 28 -25 73 -18 l49 6 -22 -35 -22 -35 21 -34 c28 -46
26 -51 -23 -44 -37 6 -46 3 -67 -19 -13 -14 -27 -25 -31 -25 -5 0 -13 17 -19
39 -7 29 -18 42 -40 51 -43 18 -45 27 -8 46 40 20 48 31 48 67 0 34 10 34 41
1z m-5267 -478 c41 7 44 -1 21 -46 -13 -25 -13 -32 0 -57 21 -40 20 -43 -27
-43 -31 0 -49 -6 -69 -26 l-26 -25 -7 41 c-5 34 -12 43 -42 57 l-35 17 23 18
c13 10 28 18 35 18 6 0 15 20 18 45 l7 44 33 -25 c27 -21 40 -24 69 -18z
m5329 -46 l47 0 -17 -36 c-17 -35 -17 -37 5 -74 l22 -38 -48 5 c-41 4 -50 1
-71 -21 -14 -14 -28 -26 -32 -26 -4 0 -10 17 -14 38 -5 32 -13 42 -41 56 -38
18 -37 29 6 51 21 11 30 24 35 56 l7 41 27 -26 c21 -20 37 -26 74 -26z m-5334
-465 c23 4 41 4 41 1 0 -3 -7 -21 -16 -39 -15 -31 -15 -36 0 -65 22 -43 21
-45 -21 -39 -33 6 -42 2 -69 -24 l-31 -30 -11 44 c-9 35 -18 47 -42 57 -38 16
-38 23 4 42 28 14 34 23 40 59 l7 42 28 -28 c26 -24 34 -26 70 -20z m5335 -41
c25 4 46 5 46 2 0 -3 -8 -21 -17 -41 -16 -33 -16 -37 0 -70 9 -20 17 -37 17
-38 0 -1 -19 -1 -42 1 -36 3 -47 -1 -67 -22 -14 -14 -28 -26 -32 -26 -4 0 -10
18 -14 39 -5 32 -13 42 -41 56 -19 9 -34 19 -34 23 1 4 15 16 33 27 19 12 33
30 35 45 6 52 11 55 42 25 26 -25 33 -27 74 -21z m-5335 -469 c23 4 41 4 41 1
0 -3 -8 -21 -17 -41 -16 -33 -16 -37 0 -70 l17 -35 -37 0 c-26 0 -45 -8 -65
-27 -30 -29 -36 -28 -43 6 -9 47 -16 58 -47 73 l-32 15 32 19 c19 10 35 30 38
44 15 65 13 64 44 35 25 -24 33 -26 69 -20z m5264 -21 c23 -22 31 -25 67 -19
45 8 45 7 26 -39 -13 -32 -13 -36 10 -70 l25 -36 -55 0 c-48 0 -58 -3 -72 -25
-17 -27 -37 -34 -28 -11 3 8 0 17 -5 21 -6 3 -9 11 -5 16 9 15 -16 40 -56 57
l-35 14 37 19 c30 15 37 26 43 59 4 22 10 40 15 40 4 0 19 -12 33 -26z m-5255
-489 l43 5 -20 -38 c-17 -33 -17 -41 -5 -62 22 -41 18 -50 -28 -50 -32 0 -49
-6 -70 -27 l-28 -27 0 28 c0 37 -17 65 -46 76 -32 13 -30 26 6 45 18 9 32 26
36 43 12 56 13 57 42 28 24 -22 35 -26 70 -21z m5262 -20 c21 -22 30 -25 67
-19 24 3 43 4 43 0 0 -3 -7 -21 -16 -39 -15 -31 -15 -36 0 -65 22 -43 21 -44
-27 -37 -37 6 -45 3 -66 -19 -14 -14 -28 -26 -31 -26 -4 0 -10 18 -14 39 -5
34 -11 42 -41 52 -44 16 -44 25 -1 46 27 13 35 23 40 54 7 46 14 48 46 14z
m-5334 -466 c14 -16 28 -20 61 -17 48 4 50 0 28 -43 -14 -27 -14 -33 0 -61 8
-17 15 -33 15 -35 0 -1 -17 -3 -38 -3 -28 0 -45 -7 -62 -25 -31 -33 -38 -32
-46 11 -5 27 -15 41 -40 56 -19 11 -34 21 -34 23 0 2 15 12 34 23 26 15 37 30
42 56 7 42 14 44 40 15z m5398 -57 c26 3 46 4 46 2 0 -2 -8 -19 -17 -39 -16
-33 -16 -37 0 -70 l17 -35 -46 0 c-37 0 -50 -5 -66 -25 -27 -34 -34 -32 -42
15 -5 34 -12 43 -41 57 -43 20 -44 27 -5 43 19 8 32 22 36 39 15 67 13 65 44
36 25 -24 35 -27 74 -23z m-5328 -472 c19 4 34 6 34 4 0 -2 -8 -19 -17 -39
-16 -33 -16 -37 0 -70 l17 -35 -43 0 c-33 0 -49 -6 -67 -25 -27 -29 -40 -24
-40 16 0 23 -7 34 -35 50 -19 12 -35 22 -35 24 0 2 16 12 35 24 27 16 35 27
35 49 0 41 8 44 47 18 28 -19 41 -22 69 -16z m5255 -16 c21 -22 30 -25 67 -20
23 3 42 3 42 0 0 -3 -7 -21 -16 -40 -15 -32 -15 -36 5 -69 l20 -35 -46 0 c-37
0 -53 -6 -74 -26 -30 -28 -28 -29 -43 36 -3 17 -17 30 -42 41 l-38 16 30 18
c41 26 54 45 54 77 0 35 10 35 41 2z m-5334 -476 c18 -16 34 -21 65 -19 38 2
40 1 33 -21 -10 -31 -11 -79 -1 -100 7 -16 3 -18 -31 -18 -29 0 -46 -7 -63
-25 -32 -34 -38 -32 -42 12 -2 28 -9 41 -26 49 -43 21 -46 31 -14 48 32 16 42
34 42 72 0 30 7 30 37 2z m5333 -33 c21 -22 30 -25 67 -19 24 3 43 4 43 0 0
-3 -7 -21 -17 -40 -15 -32 -15 -37 0 -60 26 -40 22 -49 -21 -41 -33 5 -41 2
-66 -24 -33 -34 -46 -32 -46 7 0 35 -8 46 -47 66 -18 9 -33 18 -33 21 0 2 15
11 34 20 27 13 35 23 40 56 7 46 14 48 46 14z m-5265 -498 c40 6 41 4 20 -37
-12 -23 -13 -34 -3 -55 6 -14 14 -25 18 -25 4 0 7 -6 7 -14 0 -11 -9 -13 -34
-9 -28 5 -39 1 -63 -22 -25 -24 -59 -28 -45 -4 4 5 3 15 -2 22 -4 6 -8 16 -8
22 0 5 -17 18 -38 29 l-37 20 29 12 c31 13 48 37 55 76 3 13 5 25 5 26 1 2 15
-8 31 -21 24 -21 37 -25 65 -20z m5258 -13 c18 -24 24 -26 69 -20 47 7 49 6
38 -14 -6 -11 -8 -20 -4 -20 3 0 2 -6 -4 -13 -9 -10 -6 -23 8 -50 11 -20 20
-40 20 -43 0 -4 -23 -4 -50 0 -47 6 -51 5 -62 -19 -16 -35 -35 -31 -42 10 -6
28 -15 39 -46 55 -22 11 -40 22 -40 24 0 2 16 13 35 25 21 12 35 28 35 40 0
22 10 51 17 51 3 0 14 -12 26 -26z m-5317 -475 c14 -16 28 -20 61 -17 48 4 51
-1 26 -38 -15 -23 -15 -28 0 -60 10 -19 17 -37 17 -39 0 -3 -19 -5 -42 -5 -32
0 -49 -6 -70 -27 l-27 -26 -7 42 c-6 36 -12 44 -41 56 -38 16 -37 27 6 44 23
10 30 21 35 52 7 44 15 48 42 18z m5324 -24 c21 -23 29 -25 73 -19 l49 7 -16
-31 c-20 -38 -20 -55 -1 -92 l14 -28 -40 5 c-34 5 -44 2 -69 -22 -34 -32 -33
-32 -46 14 -6 24 -19 39 -41 50 -18 9 -33 19 -33 23 0 3 16 15 35 27 30 17 35
26 35 56 0 42 8 44 40 10z m-5258 -500 c21 4 38 5 38 2 0 -2 -7 -18 -16 -36
-12 -25 -14 -38 -5 -63 16 -46 14 -50 -20 -43 -26 6 -36 2 -65 -26 l-33 -32
-7 42 c-5 34 -12 44 -40 57 -38 18 -36 27 7 49 20 11 29 23 29 39 0 52 9 58
43 30 25 -21 36 -24 69 -19z m5259 -1 c20 -22 30 -25 67 -21 46 5 49 0 26 -44
-14 -28 -14 -33 0 -54 26 -39 21 -48 -21 -42 -33 6 -42 2 -69 -24 l-32 -31 -7
34 c-8 36 -31 68 -50 68 -7 0 -18 6 -24 14 -9 11 -5 16 19 26 35 14 50 37 50
74 0 33 10 33 41 0z m-5331 -489 c21 -22 29 -25 67 -19 l44 6 -17 -35 c-16
-34 -16 -39 -1 -78 l16 -42 -36 6 c-30 5 -43 1 -69 -18 -41 -32 -44 -31 -44 4
0 32 -18 56 -50 66 -28 9 -25 17 15 43 29 18 35 28 35 57 0 42 8 44 40 10z
m5331 -21 c21 -22 29 -25 66 -19 24 3 43 4 43 1 0 -3 -7 -21 -16 -39 -15 -31
-15 -36 0 -65 22 -43 21 -45 -20 -37 -31 5 -41 2 -64 -20 -31 -30 -50 -26 -50
8 0 30 -9 41 -47 61 -18 9 -33 18 -33 20 0 2 15 11 34 20 28 13 35 23 41 56 4
22 10 40 14 40 4 0 18 -12 32 -26z m-5322 -498 c10 -12 24 -14 52 -10 45 7 44
8 24 -40 -14 -32 -14 -39 0 -66 20 -39 20 -39 -22 -34 -31 4 -42 0 -69 -27
l-32 -31 -7 42 c-5 32 -14 46 -36 59 -36 20 -36 27 0 45 31 16 41 34 41 72 0
21 3 23 18 15 10 -5 24 -17 31 -25z m5318 -8 c18 -17 33 -21 68 -19 l45 3 -17
-36 c-15 -33 -16 -38 0 -70 8 -19 13 -36 11 -39 -3 -3 -22 -3 -42 0 -30 4 -41
0 -61 -21 -14 -14 -28 -26 -32 -26 -4 0 -10 17 -14 38 -5 32 -13 42 -41 56
-39 18 -37 29 7 51 22 12 29 23 29 44 0 46 13 51 47 19z m-5266 -512 c21 4 39
4 39 1 0 -4 -8 -22 -17 -42 -12 -25 -14 -38 -7 -43 12 -7 34 -46 34 -58 0 -3
-19 -4 -41 -1 -35 5 -45 2 -65 -20 -26 -28 -44 -23 -44 13 0 18 -10 31 -35 45
-19 12 -35 24 -35 27 0 4 13 14 29 23 21 12 30 26 35 58 l6 42 31 -25 c26 -22
37 -25 70 -20z m5264 8 c25 -21 37 -25 72 -21 44 5 47 -3 17 -46 -10 -16 -8
-25 13 -55 l25 -37 -45 -3 c-33 -2 -53 -10 -71 -29 -30 -30 -31 -30 -43 17 -7
26 -19 40 -46 55 -41 22 -46 33 -19 42 34 12 52 36 52 70 0 40 6 41 45 7z
m-216 -335 c15 0 34 -4 43 -7 16 -6 14 -11 -13 -36 -26 -25 -30 -35 -27 -68 2
-21 2 -38 0 -38 -1 0 -18 7 -37 14 -31 13 -39 13 -70 0 -19 -7 -36 -14 -39
-14 -2 0 -2 18 1 41 5 34 2 44 -22 69 l-28 29 42 7 c35 6 46 13 64 45 l22 39
19 -40 c15 -31 26 -40 45 -41z m-4780 36 c14 -24 28 -35 43 -35 43 0 51 -14
23 -40 -19 -18 -25 -33 -25 -67 0 -24 -2 -43 -5 -43 -4 0 -19 7 -35 15 -27 14
-33 14 -60 0 -40 -21 -42 -20 -39 23 2 28 -3 47 -20 68 l-23 29 39 11 c28 7
42 19 53 42 8 17 18 32 22 32 3 0 15 -16 27 -35z m523 1 c13 -26 24 -35 53
-40 l37 -7 -25 -27 c-22 -24 -25 -33 -20 -75 l6 -49 -31 16 c-17 9 -38 16 -47
16 -9 0 -30 -7 -47 -16 l-31 -16 5 45 c5 39 2 49 -18 68 -32 30 -30 37 11 45
25 4 41 16 56 40 11 19 24 34 28 34 4 0 15 -15 23 -34z m527 -3 c11 -21 20
-34 21 -29 0 5 7 3 15 -4 8 -7 21 -10 29 -7 26 10 26 -7 0 -34 -23 -24 -26
-34 -21 -68 3 -22 3 -42 0 -45 -2 -2 -23 4 -46 14 -36 16 -43 17 -61 4 -31
-21 -38 -17 -35 19 2 22 -4 44 -19 64 -27 38 -27 43 -3 43 33 0 50 11 72 46
11 19 22 34 25 34 2 0 12 -17 23 -37z m1053 3 c14 -28 23 -34 59 -40 l42 -7
-32 -33 c-29 -29 -32 -38 -26 -70 8 -40 2 -43 -39 -22 -27 14 -62 11 -72 -5
-3 -5 -12 -9 -20 -9 -13 0 -14 8 -9 40 6 35 3 42 -21 65 -31 29 -28 35 18 44
22 5 40 17 53 39 11 17 23 31 26 32 3 0 13 -15 21 -34z m526 0 c15 -25 29 -35
56 -40 20 -4 36 -9 36 -12 0 -3 -12 -17 -26 -32 -21 -22 -24 -34 -20 -65 4
-36 3 -38 -17 -32 -30 11 -78 11 -104 2 -22 -8 -23 -6 -23 36 0 31 -6 49 -20
62 -28 25 -25 32 17 40 39 7 62 28 63 58 0 27 16 20 38 -17z m526 -1 c13 -29
21 -36 56 -41 l41 -7 -25 -26 c-16 -17 -26 -40 -28 -66 -3 -34 -6 -39 -23 -36
-11 2 -33 3 -50 3 -16 0 -39 -1 -50 -3 -18 -4 -20 1 -17 36 3 31 -2 45 -17 59
-29 26 -26 33 13 40 25 5 40 16 55 41 11 19 23 35 26 35 2 0 11 -16 19 -35z
m521 15 c10 -32 34 -50 65 -50 39 0 44 -13 15 -40 -19 -18 -25 -34 -25 -67 0
-47 -11 -53 -49 -27 -19 14 -27 14 -49 4 -49 -24 -54 -22 -47 19 5 30 2 41
-14 56 -29 26 -26 41 9 49 21 4 37 17 51 41 24 40 35 44 44 15z m539 -21 c8
-16 25 -26 55 -32 l43 -9 -31 -32 c-27 -28 -30 -36 -24 -70 6 -39 6 -39 -23
-32 -16 4 -32 12 -35 18 -5 8 -20 6 -49 -6 l-42 -17 4 33 c4 25 -1 41 -19 65
-28 37 -24 53 16 53 29 0 53 20 65 54 8 22 20 13 40 -25z m-2639 1 c11 -22 23
-30 43 -30 46 0 55 -13 27 -40 -19 -18 -25 -33 -25 -67 0 -47 -6 -51 -50 -28
-27 14 -33 14 -60 0 -41 -21 -43 -20 -35 21 5 31 2 41 -20 64 -31 32 -26 50
13 50 33 0 45 8 61 38 16 30 27 28 46 -8z"/>
<path d="M1000 8721 c-2 -137 -11 -3986 -14 -5569 -3 -1931 -2 -2103 13 -2111
12 -6 4745 -9 4797 -2 8 1 12 268 13 989 7 3255 13 5940 15 6289 0 221 -3 405
-7 409 -4 5 -1090 9 -2413 10 -2209 1 -2404 0 -2404 -15z m1623 -105 c18 -7
45 -28 61 -45 34 -35 52 -39 61 -12 10 31 42 53 81 54 30 1 42 -5 70 -36 38
-41 42 -62 18 -95 -22 -32 -104 -29 -104 4 0 11 4 12 19 4 31 -16 59 -12 71
10 21 39 -29 93 -81 88 -38 -3 -58 -33 -66 -97 -13 -98 140 -163 257 -110 50
22 90 56 90 74 0 7 -18 15 -40 19 -26 4 -40 12 -40 21 0 11 5 12 26 5 50 -19
80 -12 109 26 75 99 209 124 244 47 13 -28 28 -29 36 -3 7 23 54 50 87 50 57
0 103 -23 156 -77 56 -58 68 -61 137 -38 18 6 17 4 -4 -14 -13 -12 -32 -21
-42 -21 -55 0 22 -79 104 -106 66 -22 124 -6 184 51 45 44 49 57 33 117 -16
56 -70 76 -118 42 -16 -11 -22 -25 -22 -53 0 -44 18 -57 47 -36 33 26 50 16
20 -10 -15 -14 -34 -25 -41 -25 -55 0 -71 94 -23 136 39 33 99 33 132 -1 14
-13 25 -31 25 -40 0 -22 8 -19 37 15 69 82 179 82 271 -2 16 -14 32 -32 35
-40 5 -15 27 1 30 23 3 20 17 39 27 39 10 0 6 -26 -11 -77 -10 -30 -8 -37 15
-67 38 -50 86 -76 135 -74 23 1 44 5 47 10 3 4 9 6 14 3 4 -3 20 9 34 26 37
44 35 95 -5 145 -43 55 -55 59 -95 38 -45 -25 -59 -68 -32 -106 10 -14 24 -25
31 -24 27 4 39 19 33 42 -7 26 3 31 22 12 30 -30 -1 -70 -56 -73 -49 -2 -84
95 -50 136 25 29 68 49 95 45 27 -5 69 -43 91 -82 9 -17 13 -15 50 18 23 20
59 42 81 49 59 18 157 -16 236 -82 33 -27 63 -49 67 -49 3 0 14 24 22 54 19
64 33 77 90 83 38 5 46 2 69 -23 19 -20 25 -36 23 -57 -4 -37 -21 -48 -66 -45
-26 2 -36 8 -38 23 -3 16 -1 18 9 8 19 -19 57 -16 68 6 13 23 -20 71 -49 71
-59 0 -90 -41 -90 -119 0 -43 4 -52 35 -80 33 -28 42 -31 106 -31 82 0 111 12
163 71 34 36 38 46 33 80 -5 40 -34 88 -54 89 -27 0 -61 -24 -66 -47 -5 -29
17 -42 43 -25 22 13 34 4 19 -15 -17 -19 -63 -16 -84 7 -14 15 -15 23 -6 33 6
8 8 16 5 19 -10 11 49 48 77 48 45 0 99 -74 99 -136 0 -6 15 -14 34 -17 43 -7
94 -54 102 -93 7 -37 -32 -84 -70 -84 -37 0 -61 39 -45 74 7 14 18 26 26 26
15 0 17 -16 3 -25 -16 -10 -12 -42 6 -49 10 -4 25 1 35 10 45 41 0 114 -69
114 -29 0 -46 -8 -78 -38 -48 -43 -64 -88 -64 -177 0 -59 2 -62 44 -104 42
-41 47 -43 86 -38 59 8 80 30 80 87 0 51 -13 70 -47 70 -27 0 -42 -42 -23 -65
10 -12 9 -15 -4 -15 -43 0 -34 85 11 96 73 19 112 -47 82 -136 -12 -33 -56
-60 -99 -60 -28 0 -26 -5 21 -67 55 -74 79 -129 79 -188 0 -74 -16 -121 -51
-145 l-30 -22 43 -38 c38 -34 43 -42 43 -82 0 -59 -25 -95 -71 -104 -44 -8
-75 5 -93 40 -11 19 -12 34 -5 54 8 22 15 27 43 27 19 0 36 -6 39 -13 3 -9 -3
-11 -20 -7 -16 4 -29 1 -38 -10 -11 -13 -10 -20 7 -43 16 -21 28 -27 54 -25
42 2 59 25 59 78 0 61 -34 90 -107 90 -49 0 -57 -3 -79 -30 -18 -22 -24 -42
-24 -78 0 -58 15 -89 68 -141 l40 -38 48 16 c56 19 54 19 54 7 0 -5 -16 -16
-36 -26 l-36 -17 41 -42 c68 -69 80 -155 35 -245 -28 -56 -28 -61 2 -161 7
-25 7 -25 -15 -6 -11 11 -26 36 -33 57 -13 45 -22 42 -68 -16 -28 -35 -31 -46
-27 -87 4 -47 -5 -64 -17 -32 -16 43 -6 93 30 140 21 27 33 49 28 51 -28 10
-57 29 -55 37 0 5 28 10 60 10 34 1 66 7 73 14 17 17 23 136 8 172 -7 17 -29
44 -48 62 l-36 31 -9 -39 c-13 -66 -30 -67 -22 -1 l7 58 -40 37 c-52 49 -73
92 -75 157 -2 43 3 60 22 86 17 23 21 34 12 37 -30 10 -82 67 -92 101 -30 102
104 199 176 126 29 -28 33 -79 9 -113 -27 -39 -84 -23 -84 24 0 35 17 37 24 4
6 -35 30 -40 46 -9 16 30 9 59 -22 82 -52 39 -128 -11 -128 -85 0 -32 7 -47
34 -74 46 -46 114 -50 178 -9 87 57 75 202 -28 324 -29 35 -40 33 -49 -8 -7
-32 -35 -64 -35 -40 0 8 7 33 15 57 13 37 13 46 1 71 -23 43 -92 101 -124 102
-100 4 -152 -41 -152 -136 0 -69 46 -104 101 -75 15 8 19 7 19 -4 0 -20 -41
-30 -86 -21 l-36 6 7 -65 c5 -44 4 -66 -3 -66 -6 0 -14 30 -17 66 -6 55 -10
64 -24 58 -29 -12 -111 -17 -111 -7 0 6 21 13 46 16 25 2 52 11 59 18 7 8 16
43 19 78 4 36 10 69 13 74 4 6 -20 7 -63 3 -81 -8 -104 -27 -104 -87 0 -28 -4
-39 -15 -39 -15 0 -15 13 1 91 5 24 2 27 -33 33 -56 10 -73 16 -73 27 0 5 25
6 58 3 l58 -6 -4 36 c-5 42 5 89 17 82 5 -3 6 -25 4 -49 -7 -61 13 -80 76 -71
113 16 148 52 138 140 -4 40 -13 55 -59 101 l-54 54 -46 -11 c-65 -17 -96 -7
-35 11 26 7 47 16 47 20 0 4 -27 29 -59 57 -42 35 -77 54 -120 66 -59 16 -62
16 -105 -3 -83 -36 -115 -122 -80 -210 19 -47 57 -66 110 -56 71 13 105 80 68
133 -25 36 -94 25 -94 -15 0 -7 9 -13 19 -13 11 0 23 -4 26 -10 4 -6 -8 -10
-29 -10 -34 0 -36 2 -36 34 0 41 21 60 65 60 62 0 102 -61 81 -123 -32 -97
-193 -108 -231 -16 -9 19 -18 35 -21 35 -3 0 -19 -8 -37 -17 -18 -9 -39 -17
-47 -18 -8 0 -20 -4 -27 -8 -6 -4 -14 -3 -18 2 -3 5 -15 8 -27 6 -27 -6 -72
22 -122 75 -40 43 -47 44 -120 23 -12 -3 -17 -1 -14 8 2 7 18 17 36 21 44 12
48 25 16 60 -89 93 -216 87 -266 -13 -36 -69 -8 -149 52 -149 31 0 70 39 70
70 0 42 -62 48 -75 7 -7 -22 -8 -21 -12 2 -5 28 18 51 51 51 56 0 76 -81 31
-125 -17 -18 -35 -25 -64 -25 -33 0 -44 6 -70 37 l-30 36 -35 -31 c-48 -42
-119 -63 -179 -51 -44 8 -118 47 -132 69 -11 19 -42 10 -53 -15 -6 -14 -17
-25 -23 -25 -6 0 -9 3 -7 8 40 77 41 82 13 124 -37 56 -109 100 -160 96 -34
-3 -42 -8 -62 -43 -27 -47 -31 -129 -8 -162 8 -12 31 -27 50 -33 44 -14 79 4
89 46 8 31 -9 80 -31 88 -24 10 -45 -14 -38 -42 4 -17 2 -23 -7 -20 -7 3 -14
21 -16 40 -3 31 0 36 23 42 39 10 60 0 80 -39 56 -102 -73 -187 -160 -105
l-23 21 -25 -25 c-35 -35 -105 -39 -139 -9 -39 35 -30 130 14 154 45 24 100
-19 78 -61 -16 -30 -28 -24 -26 12 1 40 -23 49 -53 19 -25 -25 -27 -68 -5 -99
22 -32 86 -31 121 4 23 23 25 31 21 91 -4 61 -7 69 -39 95 -27 24 -41 28 -68
24 -47 -7 -106 -49 -137 -96 -24 -37 -25 -42 -13 -72 7 -18 17 -36 23 -40 15
-10 2 -20 -18 -12 -9 3 -16 12 -16 19 0 7 -6 18 -13 24 -11 8 -18 6 -33 -10
-79 -88 -264 -91 -331 -5 l-21 26 -23 -35 c-13 -19 -30 -35 -36 -35 -18 0 -16
19 1 26 8 3 20 19 27 35 25 63 -32 153 -114 179 -53 17 -114 -7 -162 -63 -39
-46 -42 -40 30 -68 41 -17 9 -24 -42 -10 -36 11 -40 9 -68 -21 -64 -69 -81
-79 -146 -88 -43 -6 -67 -6 -76 2 -7 6 -13 7 -13 4 0 -4 -10 0 -22 8 -30 22
-34 21 -48 -14 -24 -57 -111 -87 -173 -59 -54 25 -77 129 -37 169 38 38 130
19 130 -27 0 -28 -35 -57 -57 -48 -16 7 -15 9 7 14 28 8 39 39 18 52 -19 13
-72 11 -86 -3 -27 -27 -4 -127 33 -142 34 -13 93 -6 117 14 30 23 53 97 44
142 -20 99 -139 146 -245 97 -53 -24 -141 -89 -141 -104 0 -6 20 -16 45 -23
25 -7 45 -17 45 -23 0 -7 -7 -8 -17 -4 -10 3 -40 11 -66 18 l-48 11 -47 -47
c-44 -44 -46 -49 -49 -109 -6 -100 23 -133 125 -145 45 -5 50 -3 71 23 18 23
21 36 16 69 -6 32 -5 38 6 28 14 -14 16 -65 4 -102 -8 -23 -7 -24 31 -18 21 3
50 9 64 12 24 6 24 6 7 -9 -11 -8 -37 -18 -59 -21 -35 -6 -39 -10 -34 -29 15
-50 18 -84 7 -90 -7 -5 -11 2 -11 17 0 13 -5 38 -11 56 -12 33 -18 36 -107 46
l-53 6 6 -73 c4 -41 14 -80 21 -88 8 -8 36 -20 62 -27 l47 -12 -50 3 c-27 1
-56 4 -64 7 -11 3 -17 -10 -23 -51 -13 -83 -31 -90 -23 -8 l7 67 -49 -5 c-39
-5 -52 -3 -63 11 -14 16 -13 17 10 10 38 -13 60 -8 86 15 19 19 22 29 18 73
-8 84 -52 130 -123 129 -52 -1 -89 -21 -128 -70 -35 -44 -41 -77 -22 -131 18
-52 1 -48 -21 4 l-21 48 -28 -27 c-15 -15 -42 -54 -60 -88 -70 -136 -15 -271
109 -271 83 0 130 43 130 118 0 27 -8 44 -30 67 -26 26 -36 30 -66 25 -48 -8
-64 -23 -64 -61 0 -57 46 -78 56 -26 4 16 10 27 15 24 25 -15 -8 -74 -42 -74
-45 0 -66 93 -29 130 42 42 104 38 152 -11 28 -27 30 -34 26 -85 -4 -43 -11
-61 -33 -84 -16 -17 -35 -30 -42 -30 -23 0 -24 -23 -3 -65 37 -73 22 -135 -53
-212 l-50 -51 7 -52 c8 -58 -8 -62 -18 -5 -4 19 -11 35 -15 35 -5 0 -27 -20
-49 -44 -45 -49 -57 -90 -49 -164 6 -58 25 -72 96 -72 40 0 52 -3 41 -10 -8
-5 -27 -10 -42 -10 -36 0 -35 -9 7 -50 49 -48 67 -90 57 -136 -11 -55 -31 -55
-22 0 8 51 1 66 -48 118 -36 38 -52 41 -52 8 0 -28 -21 -70 -36 -70 -10 0 -10
6 2 28 26 49 28 89 6 124 -27 46 -34 83 -26 145 5 44 14 62 50 102 24 27 44
51 44 54 0 2 -13 10 -30 17 -47 19 -35 31 14 13 43 -16 43 -16 79 11 56 43 81
91 82 154 0 48 -3 57 -33 83 -93 83 -237 -28 -161 -125 25 -32 61 -34 90 -5
28 28 22 63 -14 67 -32 4 -27 22 7 22 29 0 46 -18 46 -51 0 -44 -31 -74 -79
-74 -54 0 -82 28 -88 89 -5 43 -3 48 36 87 22 23 41 43 41 46 0 2 -13 18 -29
34 -64 64 -52 186 30 303 28 41 48 79 44 85 -3 6 -10 9 -15 6 -17 -10 -71 18
-85 46 -18 33 -19 65 -4 108 18 51 82 57 109 9 16 -29 8 -57 -18 -66 -10 -3
-10 2 -1 22 15 31 -2 56 -37 56 -29 0 -44 -27 -44 -78 0 -50 25 -73 86 -80 45
-5 48 -3 90 42 38 40 44 52 44 90 0 116 -44 202 -114 226 -56 18 -117 -18
-118 -71 -1 -32 21 -59 49 -59 20 0 28 30 14 52 -15 25 -7 35 14 18 25 -20 19
-69 -10 -82 -19 -9 -29 -7 -50 6 -75 49 -33 149 70 166 26 4 30 9 31 40 3 67
32 110 75 110 73 0 116 -48 85 -95 -20 -31 -61 -34 -76 -5 -12 22 -1 27 17 9
18 -18 43 -3 43 25 0 43 -72 63 -102 29 -8 -10 -16 -40 -17 -67 -3 -47 -1 -50
51 -101 87 -84 168 -86 249 -8 41 40 46 48 42 81 -2 20 -8 41 -13 47 -6 7 -7
14 -4 18 9 8 -52 37 -79 37 -36 0 -60 -31 -48 -63 13 -34 24 -39 47 -22 26 20
37 18 25 -4 -17 -31 -50 -33 -78 -5 -44 44 -9 114 56 114 43 0 100 -32 103
-57 2 -26 4 -36 14 -60 9 -22 10 -22 69 24 131 103 259 110 337 20 l18 -22 20
25 c52 63 73 80 99 76 14 -2 29 -5 33 -5 3 -1 20 -13 37 -27 42 -35 43 -85 2
-123 -31 -29 -59 -33 -85 -12 -21 17 -20 45 1 62 15 12 16 12 10 -5 -11 -29 1
-53 25 -51 26 2 58 40 58 69 0 21 -35 64 -52 66 -4 0 -14 3 -22 6 -40 15 -96
-64 -96 -135 0 -27 7 -48 23 -66 20 -23 31 -27 80 -27 51 -1 64 3 103 33 69
51 74 64 54 127 -18 56 -6 68 18 19 17 -34 22 -34 58 4 32 35 117 79 152 79
12 0 37 -6 55 -14z m-1461 -41 c16 -35 2 -43 -27 -15 -30 28 -32 40 -5 40 12
0 25 -10 32 -25z m4568 5 c0 -19 -36 -47 -47 -36 -4 3 -1 17 5 31 14 30 42 33
42 5z m-3078 -97 c18 -16 25 -43 10 -43 -4 0 -13 9 -20 20 -7 11 -21 20 -31
20 -37 0 -43 -68 -9 -100 l22 -20 -22 0 c-26 0 -42 27 -42 70 0 17 5 40 10 51
13 24 57 25 82 2z m1538 -263 c0 -18 -11 -42 -30 -63 -16 -19 -30 -39 -30 -45
0 -5 -6 -15 -14 -21 -19 -16 -40 -95 -32 -125 9 -35 98 -122 156 -151 78 -39
89 -32 37 23 -57 62 -77 101 -77 151 0 50 8 71 27 71 12 0 12 -2 -1 -16 -51
-50 16 -157 171 -276 60 -45 141 -140 149 -174 13 -51 -4 -44 -43 18 -48 77
-84 107 -178 143 -145 57 -251 153 -270 243 -8 39 23 111 68 157 16 17 36 45
43 63 18 40 24 41 24 2z m-1472 -74 c73 -78 82 -132 35 -206 -43 -68 -168
-151 -284 -189 -49 -16 -111 -71 -149 -132 -32 -53 -47 -59 -36 -15 8 33 100
137 157 178 147 105 204 193 168 260 -6 11 -8 22 -6 25 8 7 37 -53 37 -77 0
-34 -35 -92 -84 -140 -25 -24 -46 -47 -46 -51 0 -12 58 8 103 35 52 30 113 90
133 128 17 33 10 87 -15 115 -48 53 -81 109 -80 137 l1 31 12 -27 c6 -15 31
-47 54 -72z m295 -13 c44 -86 33 -171 -33 -246 -38 -44 -105 -73 -200 -86 -78
-10 -174 -43 -260 -86 -62 -31 -69 -31 -41 -1 34 36 107 64 239 92 64 13 142
37 172 52 46 23 59 35 83 81 34 68 34 103 1 187 -23 57 -25 69 -14 92 l13 27
7 -30 c4 -16 19 -53 33 -82z m871 43 c-3 -12 -15 -41 -26 -66 -38 -83 -9 -199
62 -246 23 -15 98 -40 193 -64 164 -41 181 -47 235 -88 59 -45 33 -42 -70 9
-68 32 -130 55 -183 64 -146 28 -186 44 -232 91 -78 80 -86 157 -28 273 14 27
25 57 25 67 1 18 1 18 15 0 8 -11 12 -29 9 -40z m-628 -22 c10 -39 -2 -172
-21 -229 -23 -69 -76 -139 -133 -175 -90 -57 -266 -100 -407 -100 -70 0 -182
-24 -239 -51 -25 -11 -66 -39 -91 -61 -63 -56 -56 -32 10 34 77 77 123 94 285
108 258 22 365 57 463 149 82 77 99 114 105 241 5 107 15 137 28 84z m353 -72
c2 -142 19 -185 96 -254 115 -102 221 -136 492 -157 135 -11 175 -27 256 -107
66 -65 76 -91 16 -42 -102 83 -153 102 -314 118 -342 35 -487 102 -543 253
-40 105 -48 287 -14 287 5 0 10 -44 11 -98z m1235 51 c-13 -30 -15 -59 -9
-154 l7 -116 -53 -84 c-44 -71 -53 -93 -55 -137 -1 -30 -5 -56 -7 -59 -3 -3
-13 10 -23 29 -23 44 -23 119 0 195 17 57 18 64 2 109 -9 26 -16 64 -16 84 0
41 21 77 39 66 9 -6 9 -11 0 -22 -8 -10 -10 -34 -4 -82 11 -96 10 -133 -5
-168 -7 -17 -10 -39 -7 -48 12 -30 42 -1 83 77 l38 74 -14 56 c-15 66 -9 158
15 193 23 35 26 30 9 -13z m-2449 -5 c4 -18 20 -54 36 -79 59 -93 48 -170 -35
-245 -97 -88 -165 -173 -173 -217 -11 -56 -30 -58 -38 -4 -8 51 11 99 70 181
42 58 46 110 14 163 -12 19 -19 37 -15 40 10 11 45 -28 56 -64 15 -42 6 -70
-54 -167 -71 -118 -76 -160 -7 -57 22 33 66 79 98 103 114 86 127 139 63 245
-25 42 -40 79 -40 100 0 42 16 43 25 1z m2069 -6 c-1 -18 -19 -57 -43 -93 -66
-99 -49 -170 61 -254 29 -23 71 -67 93 -99 58 -83 55 -51 -4 50 -44 73 -51 93
-51 137 0 35 7 63 21 86 31 51 44 26 18 -34 -29 -66 -20 -112 36 -187 51 -68
61 -105 45 -164 -13 -44 -30 -51 -30 -12 0 44 -45 111 -131 196 -54 52 -93
100 -100 121 -18 54 -7 143 24 190 15 23 30 55 34 72 7 38 28 32 27 -9z
m-2440 -45 c6 -38 -9 -147 -20 -147 -2 0 -3 39 -1 88 1 48 -2 98 -6 112 -7 23
-7 24 6 7 8 -10 18 -37 21 -60z m876 24 c13 -26 13 -97 -1 -124 -23 -45 -81
-107 -99 -107 -14 0 -7 12 29 49 67 68 79 102 59 158 -16 43 -8 60 12 24z
m1070 12 c0 -5 -7 -17 -15 -27 -36 -48 -9 -119 74 -193 32 -29 34 -32 14 -33
-36 0 -123 120 -123 170 0 29 27 90 39 90 6 0 11 -3 11 -7z m-1820 -108 c0 -8
-9 -40 -21 -70 -12 -31 -19 -66 -16 -78 2 -12 12 -51 22 -86 20 -74 15 -114
-20 -161 l-24 -33 6 36 c7 43 -10 98 -48 155 -55 82 -73 132 -49 132 6 0 10
-6 10 -14 0 -21 37 -99 61 -130 17 -21 24 -24 35 -15 16 13 19 45 4 54 -14 8
-13 86 2 157 10 46 10 63 0 78 -7 11 -12 25 -12 32 1 18 50 -39 50 -57z m1231
-216 c-17 -83 -28 -104 -71 -134 -94 -65 -159 -75 -612 -93 -191 -8 -210 -10
-257 -34 -58 -28 -67 -24 -18 9 47 32 126 42 372 47 418 9 539 56 576 222 17
74 25 60 10 -17z m79 12 c0 -8 12 -38 26 -67 32 -66 80 -96 196 -124 79 -19
132 -23 466 -35 173 -6 220 -17 269 -61 l38 -34 -38 24 c-54 35 -105 43 -362
56 -321 16 -396 25 -461 54 -98 45 -121 69 -138 146 -9 38 -16 73 -16 77 0 14
20 -21 20 -36z m1587 -78 c2 -6 -9 -19 -24 -28 -48 -29 -76 -73 -81 -126 -7
-71 -22 -71 -22 -1 0 47 5 67 26 98 43 65 90 91 101 57z m-3183 -37 c36 -43
55 -106 48 -154 -5 -34 -22 -16 -22 24 0 46 -20 83 -69 126 -48 41 -50 48 -17
48 17 0 36 -14 60 -44z m3324 -24 c-14 -20 -37 -48 -52 -62 -45 -42 -67 -87
-75 -152 l-7 -63 -12 40 c-18 60 -1 104 71 186 34 39 69 80 77 91 25 36 23 -1
-2 -40z m-3417 -124 c20 -39 25 -113 9 -138 -8 -12 -10 -10 -11 10 -4 99 -14
121 -84 198 -32 35 -54 71 -55 86 0 17 121 -118 141 -156z m239 112 c5 -10 10
-31 9 -47 l-1 -28 -9 31 c-5 17 -18 39 -29 49 -11 10 -20 22 -20 27 0 14 38
-10 50 -32z m2854 31 c3 -5 -1 -15 -10 -22 -8 -7 -22 -26 -30 -43 l-14 -31 4
38 c7 52 34 84 50 58z m-1535 -127 c-19 -20 -52 -45 -74 -56 -48 -24 -128 -25
-411 -7 -206 13 -273 7 -363 -32 -24 -11 -46 -17 -49 -15 -9 10 52 56 87 66
67 20 260 23 441 7 104 -10 191 -13 215 -8 44 8 159 64 170 81 4 6 10 9 13 6
3 -4 -10 -22 -29 -42z m293 -40 c45 -15 67 -15 276 -1 307 21 416 9 480 -53
33 -32 20 -36 -33 -10 -80 39 -162 45 -441 33 -172 -8 -266 -8 -291 -1 -47 12
-103 49 -131 87 l-21 29 56 -34 c30 -18 78 -41 105 -50z m1196 -32 c9 -10 34
-37 55 -60 40 -44 57 -52 57 -27 0 29 19 15 80 -57 78 -93 122 -160 146 -223
16 -43 19 -76 18 -225 0 -164 -2 -180 -29 -260 -29 -89 -33 -121 -21 -182 5
-28 12 -38 26 -38 26 0 31 12 35 78 3 65 15 81 27 37 11 -42 0 -91 -30 -126
-25 -30 -25 -31 -12 -100 11 -55 17 -69 31 -69 23 0 43 39 59 114 23 112 21
172 -10 329 -31 155 -37 259 -19 337 5 25 32 83 58 130 27 47 52 102 55 123
10 53 30 48 24 -7 -3 -26 -30 -93 -63 -160 l-58 -116 6 -112 c4 -63 18 -164
33 -228 21 -93 25 -128 19 -185 -7 -76 -33 -161 -70 -235 -21 -41 -22 -52 -13
-91 6 -24 15 -49 20 -56 5 -7 7 -17 3 -24 -5 -7 -1 -10 11 -7 23 4 64 64 100
148 35 83 36 190 3 307 -19 64 -23 104 -23 218 -1 128 1 144 23 188 23 47 41
61 41 32 0 -8 -11 -48 -25 -89 -34 -100 -33 -191 2 -333 18 -74 27 -136 27
-199 1 -87 -1 -94 -42 -177 -23 -47 -54 -100 -68 -117 -22 -25 -25 -36 -19
-70 4 -22 11 -43 17 -46 20 -13 125 113 179 216 22 41 24 56 23 175 -1 92 -8
160 -23 233 -21 96 -21 142 -1 142 4 0 11 -24 15 -52 3 -29 13 -93 22 -143 9
-58 14 -136 11 -220 -4 -165 -16 -194 -134 -304 -69 -65 -84 -83 -84 -108 0
-50 12 -93 25 -93 33 0 232 243 241 293 1 4 2 8 4 10 16 19 22 223 11 377 -10
144 -10 172 4 218 10 34 21 52 31 52 9 0 14 -6 11 -13 -30 -77 -31 -185 -5
-370 8 -58 7 -102 -1 -169 -17 -132 -55 -199 -202 -360 -79 -86 -87 -103 -73
-155 10 -36 36 -27 90 30 101 104 211 272 219 334 2 15 4 30 5 33 2 3 2 46 1
97 -2 98 15 163 43 163 20 0 20 -9 1 -46 -9 -19 -15 -65 -16 -129 -3 -184 -45
-272 -206 -432 -62 -61 -113 -119 -113 -128 0 -22 28 -75 40 -75 11 0 146 117
179 156 47 55 101 137 101 155 0 24 11 49 21 49 27 0 -8 -129 -50 -187 -17
-23 -60 -66 -98 -96 -123 -98 -135 -112 -131 -153 4 -47 34 -69 52 -39 20 35
95 104 135 125 22 11 47 30 55 42 9 12 19 19 22 15 14 -13 -29 -59 -94 -101
-81 -52 -114 -94 -110 -139 4 -46 32 -48 59 -3 11 19 29 38 39 41 10 3 35 19
56 36 20 16 39 27 41 25 11 -11 -21 -48 -56 -66 -73 -37 -114 -113 -79 -148
22 -22 47 -12 73 28 24 39 61 67 73 56 3 -4 -8 -20 -25 -36 -38 -37 -62 -86
-56 -111 3 -11 25 -33 49 -51 45 -32 60 -53 44 -63 -24 -15 -162 91 -218 167
-109 150 -203 387 -251 633 -23 117 -39 191 -48 215 -8 19 -6 14 -37 160 -69
323 -144 527 -240 653 -38 50 -46 73 -21 63 8 -3 22 -9 30 -12 13 -5 15 6 15
68 0 65 -4 80 -30 121 -36 57 -36 57 -9 50 12 -4 32 -29 51 -67 31 -60 31 -62
20 -141 -10 -77 -10 -82 14 -123 14 -24 31 -41 37 -39 36 12 31 200 -8 286
-14 30 -23 57 -19 60 11 12 54 -50 69 -101 19 -66 19 -125 -1 -229 -15 -79
-15 -87 2 -136 27 -81 47 -66 69 52 42 220 -7 450 -123 568 -39 40 -52 47 -85
47 -31 0 -44 -6 -65 -30 -45 -51 -68 -32 -56 47 5 36 4 42 -9 37 -19 -7 -47
-64 -47 -94 0 -12 12 -61 27 -108 24 -77 25 -90 15 -140 -18 -86 -46 -103 -97
-59 -23 19 -28 33 -32 89 -8 93 12 191 53 261 19 32 34 60 34 63 0 2 -9 4 -20
4 -11 0 -20 -5 -20 -11 0 -5 -4 -8 -9 -4 -15 8 -141 -109 -141 -132 0 -21 -21
-25 -40 -8 -44 40 -33 121 23 171 28 26 39 29 97 29 36 0 71 -3 78 -5 8 -3 19
4 25 15 6 11 17 30 25 43 15 27 27 28 50 4z m-2751 -27 l17 -35 82 5 c65 4 86
1 98 -10 8 -8 19 -15 24 -15 5 0 17 -15 27 -34 22 -41 16 -111 -12 -131 -25
-20 -29 -19 -43 14 -19 47 -90 101 -162 125 -26 8 -23 -6 19 -87 35 -68 38
-78 41 -177 3 -92 1 -109 -18 -138 -16 -26 -26 -33 -47 -30 -61 7 -83 113 -45
218 30 84 34 107 19 142 -26 63 -73 78 -49 16 8 -21 8 -37 1 -49 -13 -25 -27
-24 -55 6 -52 56 -114 40 -182 -47 -85 -110 -118 -239 -110 -427 4 -91 10
-127 28 -168 12 -29 26 -51 29 -48 4 2 16 29 26 59 18 52 18 58 2 124 -21 87
-22 163 -2 230 14 47 62 119 72 108 2 -2 -8 -30 -23 -63 -21 -44 -29 -77 -32
-139 -4 -76 9 -154 26 -154 4 0 20 21 35 46 26 44 27 48 17 106 -12 66 -7 102
22 166 19 39 53 70 64 59 3 -3 -9 -25 -26 -49 -26 -38 -31 -53 -33 -115 -1
-39 1 -74 5 -78 3 -4 18 1 32 10 37 25 32 4 -14 -57 -52 -70 -100 -167 -150
-308 -39 -110 -96 -328 -104 -400 -3 -19 -5 -35 -6 -35 -1 0 -4 -11 -6 -25
-13 -102 -99 -455 -134 -550 -51 -139 -67 -171 -135 -275 -62 -96 -109 -145
-190 -197 -51 -33 -61 -37 -64 -22 -2 10 14 32 43 56 31 27 46 47 46 64 0 29
-30 80 -59 100 -12 9 -19 20 -16 25 10 16 44 -9 67 -52 18 -31 28 -39 48 -37
34 4 48 44 29 84 -8 16 -37 44 -65 64 -50 34 -80 67 -71 77 9 9 129 -90 138
-114 6 -18 15 -24 32 -21 17 2 23 10 25 38 3 42 -37 90 -120 143 -58 37 -71
50 -82 82 -6 17 -3 16 21 -6 15 -15 54 -43 85 -62 32 -20 69 -55 84 -77 30
-46 54 -49 68 -9 16 47 0 72 -99 154 -53 44 -106 96 -119 115 -39 57 -74 182
-46 165 6 -3 10 -14 10 -24 0 -48 237 -311 281 -311 8 0 21 11 27 25 22 49 15
71 -40 120 -134 119 -212 230 -245 350 -21 77 -23 85 -29 165 -3 41 -10 90
-16 108 -13 43 -2 54 22 22 14 -18 20 -42 20 -90 3 -175 26 -241 145 -410 57
-80 114 -143 145 -160 16 -9 22 -6 35 19 27 52 20 72 -51 141 -79 79 -139 161
-188 258 -55 109 -61 168 -37 347 13 99 11 257 -4 304 -6 18 -5 23 6 19 8 -2
20 -24 28 -48 12 -37 12 -72 1 -230 -19 -265 -7 -339 76 -465 34 -52 180 -215
193 -215 8 0 31 81 31 109 0 10 -44 63 -99 117 -57 57 -106 116 -116 139 -29
66 -31 209 -6 365 12 74 24 150 27 168 3 18 9 30 15 27 15 -10 10 -71 -12
-158 -16 -60 -22 -115 -23 -202 -1 -112 1 -124 27 -175 30 -61 161 -230 178
-230 9 0 39 59 39 79 0 5 -20 36 -45 69 -25 33 -60 91 -77 129 -42 92 -42 157
1 328 30 116 33 140 28 222 -3 52 -12 106 -20 123 -22 42 -31 90 -18 90 16 0
37 -48 51 -115 17 -80 6 -215 -26 -333 -39 -146 -33 -225 26 -343 26 -51 68
-104 83 -104 9 0 12 8 21 60 2 11 7 32 11 47 5 21 -2 49 -29 110 -19 46 -41
116 -48 156 -11 65 -10 84 11 195 56 300 55 349 -11 487 -55 115 -71 161 -62
184 5 14 9 15 15 4 5 -7 9 -23 9 -36 0 -12 26 -71 58 -130 l57 -107 -1 -120
c0 -96 -5 -141 -27 -225 -30 -118 -35 -230 -13 -321 14 -61 45 -122 61 -122 6
0 18 35 28 77 l18 77 -25 30 c-32 38 -41 85 -24 124 12 29 13 29 16 -31 2 -49
8 -66 27 -84 l24 -22 10 38 c24 93 24 109 -2 161 -36 69 -51 190 -44 344 5
119 7 130 41 199 42 84 69 122 147 209 42 46 58 58 62 46 13 -33 34 -19 109
74 25 30 46 26 65 -14z m938 -26 c118 -28 235 -96 235 -136 0 -26 -73 -15
-126 19 -66 42 -192 93 -284 115 -70 17 -73 18 -40 24 49 8 122 1 215 -22z
m365 18 c0 -22 -22 -37 -53 -37 l-30 0 34 24 c40 28 49 31 49 13z m130 -12
l34 -25 -32 0 c-21 0 -35 6 -42 19 -21 39 -8 41 40 6z m-1848 -22 c19 -22 41
-116 36 -157 -1 -16 -9 -31 -17 -34 -10 -3 -12 6 -6 46 7 52 -9 103 -52 161
-17 23 -17 24 2 13 11 -5 28 -18 37 -29z m2414 28 c-3 -5 -26 -12 -51 -16 -89
-13 -235 -70 -318 -123 -37 -25 -91 -32 -109 -14 -12 12 37 59 92 87 45 23
170 60 225 68 60 8 166 7 161 -2z m1131 -38 c-28 -42 -32 -56 -32 -115 0 -45
-4 -68 -11 -68 -14 0 -24 23 -24 55 0 40 37 146 57 160 37 29 41 14 10 -32z
m-2497 -1 c33 -25 38 -67 10 -82 -26 -14 -54 -6 -99 28 -26 19 -51 27 -93 30
-32 3 -58 8 -58 12 0 4 17 15 38 24 50 22 165 15 202 -12z m1634 3 c52 -22 44
-35 -23 -35 -50 0 -64 -4 -96 -30 -63 -50 -144 -34 -114 22 21 41 57 56 140
57 31 1 73 -6 93 -14z m-1343 -86 c219 -80 369 -205 369 -309 0 -21 -5 -30
-17 -30 -32 0 -109 60 -148 117 -61 88 -122 143 -218 197 -121 67 -118 73 14
25z m934 13 c-17 -9 -57 -30 -89 -47 -75 -39 -141 -97 -201 -180 -89 -120
-201 -167 -178 -73 27 106 165 208 383 284 107 38 129 42 85 16z m-1499 -64
c48 -95 42 -253 -9 -246 -38 5 -48 43 -44 158 4 93 12 140 23 140 2 0 16 -24
30 -52z m2018 5 c10 -65 6 -207 -7 -233 -7 -14 -22 -26 -33 -28 -52 -7 -59
138 -12 241 15 31 31 57 36 57 5 0 12 -17 16 -37z m-1659 -4 c43 -12 105 -67
105 -93 0 -26 -28 -30 -68 -12 -62 29 -162 98 -156 107 7 12 71 11 119 -2z
m1361 -22 c-60 -46 -172 -107 -197 -107 -21 0 -8 57 19 83 38 36 67 46 142 46
l65 0 -29 -22z m-1551 -177 c25 -75 30 -153 11 -169 -21 -18 -42 -8 -67 31
-18 29 -20 44 -15 120 2 48 8 93 12 99 10 16 40 -25 59 -81z m211 58 c47 -36
62 -57 80 -110 15 -46 15 -51 0 -66 -15 -15 -17 -15 -32 0 -20 19 -95 198 -84
198 4 0 20 -10 36 -22z m1244 -5 c-4 -16 -24 -63 -45 -106 -31 -66 -40 -78
-58 -75 -49 7 -5 128 65 178 22 17 42 30 44 30 1 0 -1 -12 -6 -27z m244 -10
c10 -64 7 -143 -8 -171 -35 -67 -86 -78 -86 -17 0 59 20 138 45 182 14 24 30
43 34 43 5 0 11 -17 15 -37z m-1240 -18 c49 -38 81 -87 72 -111 -11 -28 -36
-13 -62 39 -14 28 -38 64 -52 80 -36 38 -14 34 42 -8z m764 12 c-14 -12 -41
-48 -58 -79 -22 -39 -38 -58 -51 -58 -46 0 -7 77 64 125 58 39 86 47 45 12z
m-1113 -138 c35 -33 54 -42 83 -43 33 -1 38 -5 48 -36 14 -43 3 -60 -38 -60
-40 0 -84 33 -119 88 -25 40 -39 92 -24 92 3 0 26 -19 50 -41z m1465 14 c0
-31 -42 -103 -74 -127 -17 -14 -47 -27 -68 -31 -30 -6 -38 -4 -47 13 -8 15 -8
29 0 49 13 35 26 43 60 36 22 -4 36 3 71 36 48 45 58 49 58 24z m-1074 -105
c19 -36 18 -78 -1 -78 -8 0 -19 16 -24 38 -6 20 -23 57 -39 82 -47 75 -47 77
2 30 26 -25 54 -57 62 -72z m690 38 c-19 -32 -38 -71 -41 -86 -3 -16 -13 -31
-21 -34 -17 -7 -20 44 -3 77 13 24 91 109 96 103 2 -2 -12 -29 -31 -60z m-483
-3 c44 -47 67 -110 67 -188 0 -74 -24 -135 -54 -135 -22 0 -77 95 -82 142 l-5
43 15 -33 c31 -67 78 -48 78 33 0 34 -9 66 -30 107 -33 63 -30 73 11 31z m217
-46 c-31 -69 -37 -115 -20 -148 17 -31 47 -23 69 19 14 26 20 31 20 17 0 -54
-64 -165 -95 -165 -45 0 -63 171 -27 250 20 45 70 106 79 98 2 -3 -9 -35 -26
-71z m-1356 -234 c-14 -23 -18 -24 -31 -10 -36 36 -23 163 25 267 17 35 17 34
20 -99 2 -110 0 -138 -14 -158z m2521 196 c27 -87 32 -161 12 -196 -12 -21
-14 -22 -34 -8 -16 12 -22 30 -28 85 -8 79 2 213 16 205 4 -3 20 -42 34 -86z
m-231 -125 c-22 -47 -88 -92 -109 -74 -18 15 -8 38 47 98 44 48 67 95 70 144
1 18 4 -4 5 -50 3 -62 0 -91 -13 -118z m-2031 32 c77 -90 76 -133 -1 -86 -43
27 -70 73 -78 136 -7 59 6 99 17 48 3 -17 31 -61 62 -98z m108 -18 c5 -21 32
-67 59 -102 28 -36 50 -67 50 -70 0 -2 -7 -7 -16 -10 -25 -10 -70 30 -98 86
-22 44 -26 65 -25 132 1 75 2 78 11 41 5 -22 14 -57 19 -77z m490 78 c47 -45
78 -146 45 -146 -7 0 -19 15 -25 33 -7 17 -25 58 -41 90 -16 31 -26 57 -21 57
4 0 23 -15 42 -34z m823 19 c-4 -8 -11 -12 -16 -9 -6 4 -5 10 3 15 19 12 19
11 13 -6z m466 -153 c-11 -44 -60 -116 -89 -131 -14 -8 -22 -7 -30 2 -8 10 -1
26 29 65 40 54 80 146 80 186 0 12 3 26 8 30 12 12 14 -110 2 -152z m-2280
138 c0 -5 -18 -19 -41 -31 -23 -11 -61 -39 -85 -61 -58 -53 -57 -31 2 32 29
31 59 52 82 58 20 6 38 10 40 11 1 1 2 -3 2 -9z m2837 -11 c35 -22 98 -98 88
-107 -2 -3 -26 15 -52 39 -27 25 -63 51 -80 58 -18 7 -30 17 -27 22 9 15 35
10 71 -12z m-1067 -38 c0 -20 -37 -105 -48 -109 -17 -5 -16 50 2 93 11 25 19
33 30 29 9 -3 16 -9 16 -13z m-1115 -47 c17 -60 29 -82 82 -153 36 -48 44 -91
17 -91 -28 0 -79 64 -98 121 -17 55 -34 179 -23 179 3 0 13 -25 22 -56z m1471
-8 c-3 -35 -13 -86 -21 -114 -23 -76 -84 -141 -114 -123 -18 11 -7 40 30 88
42 52 75 120 84 171 11 69 29 51 21 -22z m-1898 -143 c-3 -128 -11 -153 -42
-130 -35 26 -20 171 32 297 10 25 14 -37 10 -167z m711 138 c57 -57 77 -143
45 -189 -24 -35 -44 -28 -44 17 0 21 -11 58 -24 83 -15 29 -21 50 -15 59 5 9
3 22 -6 36 -32 48 -7 45 44 -6z m941 32 c0 -5 -7 -17 -15 -27 -8 -11 -12 -28
-9 -38 3 -10 -4 -38 -15 -61 -11 -23 -23 -59 -26 -79 -12 -67 -54 -34 -54 42
0 52 11 75 63 130 35 37 56 50 56 33z m690 -82 c29 -93 26 -231 -6 -231 -33 0
-49 86 -39 222 8 110 13 111 45 9z m-2590 41 c0 -5 -23 -19 -51 -32 -29 -14
-70 -46 -95 -73 -53 -59 -57 -51 -9 15 39 53 71 77 118 88 17 5 33 8 35 9 1 1
2 -3 2 -7z m856 -121 c50 -60 53 -71 23 -71 -35 0 -86 60 -104 123 -20 70 -10
95 18 41 11 -21 39 -63 63 -93z m1164 37 c-15 -51 -66 -108 -96 -108 -32 0
-30 9 15 66 21 27 49 69 62 94 l24 45 3 -30 c2 -16 -1 -47 -8 -67z m858 78
c36 -19 122 -134 122 -163 0 -4 -7 4 -17 17 -31 48 -78 92 -130 121 -29 17
-53 32 -53 35 0 10 53 3 78 -10z m-1621 -123 c30 -55 35 -91 19 -151 -17 -61
-40 -102 -59 -102 -15 0 -55 41 -81 83 -21 33 -37 126 -26 146 5 9 9 3 14 -21
9 -47 33 -78 61 -78 46 0 69 71 45 134 -14 39 3 31 27 -11z m309 10 c-15 -72
-15 -89 -1 -110 18 -27 56 -30 76 -7 8 9 22 37 31 63 l16 46 1 -50 c1 -59 -31
-134 -78 -184 -37 -40 -50 -34 -81 37 -33 73 -23 162 22 220 16 19 20 14 14
-15z m-1557 -69 c-7 -9 -59 -38 -115 -64 -88 -41 -106 -54 -130 -91 -16 -24
-29 -46 -31 -48 -2 -2 -6 -2 -9 2 -11 11 33 93 65 120 18 14 51 31 74 37 69
17 125 40 138 56 6 8 14 12 17 9 3 -2 -1 -12 -9 -21z m2495 -41 c6 -68 -14
-149 -51 -209 -47 -77 -70 -60 -72 54 -1 45 2 52 18 52 30 0 57 43 70 111 14
71 28 68 35 -8z m326 40 c25 -12 63 -26 86 -32 22 -6 56 -21 75 -34 40 -27 82
-97 77 -129 -3 -19 -8 -13 -33 32 -29 52 -35 57 -132 105 -56 28 -110 58 -120
69 -20 20 -18 20 47 -11z m-2505 -30 c8 -58 28 -91 62 -104 24 -9 25 -12 21
-79 -2 -38 -7 -72 -11 -77 -27 -26 -98 97 -105 182 -5 60 4 125 17 125 5 0 12
-21 16 -47z m-271 -64 c-22 -49 -93 -104 -205 -158 -47 -23 -99 -55 -114 -71
-50 -52 -64 -32 -16 22 18 21 60 47 108 67 95 42 136 70 173 125 68 97 64 93
68 72 2 -10 -4 -36 -14 -57z m2749 -23 c25 -40 41 -52 125 -92 113 -53 150
-80 175 -123 25 -42 6 -39 -44 7 -22 21 -83 61 -135 88 -52 27 -111 62 -130
77 -41 34 -78 102 -69 125 6 15 10 13 28 -10 12 -15 35 -47 50 -72z m-1385 60
c5 -24 -6 -66 -18 -66 -13 0 -23 38 -16 66 7 28 29 28 34 0z m-886 -203 c46
-45 68 -40 68 16 0 22 5 43 10 46 19 11 34 -49 36 -145 3 -138 -14 -159 -78
-92 -79 80 -132 227 -113 313 7 32 8 31 25 -35 13 -51 25 -76 52 -103z m1806
78 c-5 -91 -33 -158 -103 -245 l-48 -59 -18 24 c-10 13 -17 29 -14 36 2 7 1
15 -4 17 -15 9 -12 110 5 163 20 63 34 68 34 14 0 -112 95 -51 122 80 16 80
31 63 26 -30z m-1232 -19 c9 -30 14 -72 11 -93 -6 -49 -43 -109 -67 -109 -40
0 -110 110 -124 195 l-7 40 28 -50 c25 -45 32 -50 66 -53 32 -3 38 0 47 24 10
24 7 77 -6 129 -12 48 37 -29 52 -83z m636 86 c-32 -41 -24 -130 14 -154 22
-15 26 -15 50 1 15 9 34 34 43 56 23 57 30 48 13 -18 -13 -53 -41 -103 -92
-162 l-20 -23 -20 23 c-32 37 -60 96 -60 124 0 26 15 34 23 13 3 -7 4 6 1 30
-4 44 25 122 47 122 8 0 8 -4 1 -12z m-1632 -62 c0 -20 -47 -74 -79 -91 -15
-7 -62 -18 -104 -24 -86 -12 -119 -26 -172 -73 -49 -42 -54 -30 -8 16 50 50
72 60 173 81 103 22 132 35 160 75 24 33 30 37 30 16z m2654 -53 c17 -9 40
-18 51 -20 81 -13 136 -28 170 -48 47 -27 112 -92 102 -102 -4 -3 -24 11 -45
32 -47 48 -98 70 -192 85 -81 12 -128 37 -154 81 -21 35 -7 47 17 14 11 -14
33 -33 51 -42z m-1377 26 c8 -8 17 -8 31 0 69 37 134 -32 76 -80 -20 -17 -28
-5 -13 19 15 24 -2 52 -32 52 -42 0 -53 -87 -16 -141 28 -41 60 -59 109 -59
44 0 68 21 68 61 0 22 -5 29 -20 29 -18 0 -25 -11 -21 -33 1 -5 -4 -7 -11 -5
-19 6 -21 43 -4 57 40 34 101 -32 77 -85 -11 -24 -64 -54 -97 -54 -28 0 -88
32 -112 59 l-23 26 -27 -32 c-37 -43 -73 -55 -124 -44 -76 17 -105 79 -58 123
18 17 26 19 46 9 16 -7 24 -19 24 -36 0 -30 -15 -33 -30 -5 -15 29 -41 14 -38
-22 2 -19 11 -36 26 -46 21 -14 28 -14 75 1 42 13 56 24 72 53 35 65 20 144
-27 144 -27 0 -32 -24 -13 -54 15 -23 15 -26 2 -26 -15 0 -47 36 -47 52 0 5 9
17 20 28 22 22 69 27 87 9z m-629 -118 c10 -5 28 -7 40 -4 22 5 25 12 38 73 6
31 8 33 15 14 10 -27 13 -153 5 -176 -3 -10 -8 -24 -10 -32 -3 -8 -17 -23 -32
-32 -26 -18 -27 -18 -51 11 -48 57 -73 125 -73 195 l0 65 24 -52 c14 -28 33
-56 44 -62z m1344 17 c-7 -35 -13 -68 -14 -75 -2 -17 -71 -106 -85 -110 -7 -3
-26 17 -42 44 -26 41 -31 58 -31 115 0 36 3 73 6 82 10 26 24 18 24 -12 0 -17
10 -38 25 -52 35 -33 67 -17 90 45 26 67 42 44 27 -37z m-1792 -71 c0 -30 -55
-39 -272 -44 l-218 -6 -62 -38 c-35 -20 -65 -35 -67 -33 -7 7 61 74 91 90 34
18 92 23 317 28 100 3 186 7 189 10 10 11 22 6 22 -7z m2685 -19 c41 -22 121
-95 114 -102 -3 -4 -37 13 -75 36 l-69 43 -222 0 c-209 0 -224 1 -242 20 l-20
20 242 0 c206 0 247 -3 272 -17z m-2833 -102 c6 4 9 1 6 -7 -4 -11 -38 -15
-159 -16 -173 -3 -206 -10 -287 -58 -31 -18 -58 -32 -60 -30 -2 2 2 12 9 23
17 26 60 51 123 69 58 18 299 32 334 21 13 -5 28 -5 34 -2z m2878 -27 c55 -26
109 -73 97 -85 -3 -4 -28 7 -54 24 -93 60 -110 63 -282 60 -147 -2 -181 2
-181 22 0 4 82 7 183 6 174 -1 185 -2 237 -27z m-2616 -24 c-8 -12 -32 -34
-52 -48 -33 -21 -52 -25 -159 -30 -67 -3 -124 -3 -126 0 -3 2 -63 5 -134 5
-140 0 -152 -3 -253 -71 -24 -17 -46 -28 -49 -26 -13 14 29 58 83 87 l61 33
183 5 c101 3 186 3 188 1 7 -8 117 0 157 10 21 6 52 23 70 39 37 32 54 30 31
-5z m1983 -1 c18 -14 49 -32 68 -40 38 -16 151 -19 160 -5 3 6 78 9 178 8 168
-2 173 -3 227 -31 65 -34 132 -99 108 -104 -9 -2 -38 13 -66 32 -85 62 -127
76 -228 76 -50 0 -93 -3 -97 -6 -3 -3 -68 -8 -144 -11 -132 -5 -139 -4 -172
19 -35 23 -90 88 -76 88 5 0 23 -11 42 -26z m-767 -44 c107 -26 176 -52 248
-92 202 -111 350 -264 450 -464 65 -131 86 -205 102 -360 31 -303 -71 -597
-291 -839 -96 -105 -297 -224 -452 -269 -383 -111 -773 -13 -1047 263 -94 94
-148 168 -203 277 -115 228 -138 517 -63 775 20 67 86 202 141 284 84 127 257
276 411 353 58 30 156 61 254 83 113 25 326 20 450 -11z m-1007 -32 c20 -10
15 -13 -47 -25 -87 -18 -109 -29 -188 -98 -56 -50 -211 -147 -214 -135 0 3 -8
-1 -17 -8 -9 -8 -21 -11 -26 -8 -5 4 -12 2 -15 -3 -11 -17 -156 2 -156 20 0 6
8 8 18 5 45 -13 96 -15 108 -5 8 6 21 8 30 5 9 -4 23 -1 32 6 8 7 17 12 19 10
9 -7 127 73 185 126 35 31 77 67 93 79 55 38 137 53 178 31z m1682 -22 c28
-13 64 -38 80 -56 65 -69 235 -188 235 -163 0 4 5 2 11 -4 6 -6 17 -9 24 -7 7
3 16 1 19 -4 3 -5 26 -6 53 -1 69 11 99 11 87 -1 -11 -11 -165 -30 -179 -21
-5 3 -16 6 -22 7 -28 5 -147 79 -204 127 -98 83 -116 94 -182 107 -83 16 -89
18 -82 30 12 19 108 11 160 -14z m717 -80 c31 -7 71 -23 90 -35 29 -20 30 -22
8 -16 -143 35 -171 38 -270 29 -93 -8 -116 -5 -88 12 40 25 175 30 260 10z
m-3008 -13 c33 -18 1 -23 -90 -14 -67 7 -110 5 -174 -6 -46 -8 -88 -17 -92
-19 -4 -3 -8 -1 -8 4 0 8 37 27 90 46 26 10 254 1 274 -11z m3138 -98 c32 -13
30 -14 -37 -8 -38 3 -94 1 -122 -5 -29 -5 -53 -5 -53 -1 0 5 1 9 3 9 1 0 20 7
42 15 45 17 114 13 167 -10z m-3345 0 c50 -21 36 -28 -30 -16 -30 5 -78 8
-106 7 -28 -2 -51 0 -51 4 0 22 138 25 187 5z m99 -33 c-20 -40 -86 -97 -138
-120 -24 -11 -73 -25 -110 -31 -36 -6 -83 -18 -103 -27 -21 -8 -40 -12 -43 -9
-10 10 17 23 93 46 115 34 170 54 173 62 2 4 10 7 17 7 17 0 115 96 116 113 0
9 2 9 5 0 3 -6 -2 -25 -10 -41z m2984 3 c35 -57 92 -84 297 -144 66 -20 92
-35 80 -47 -2 -2 -24 4 -48 14 -24 10 -66 22 -94 26 -119 15 -213 64 -245 126
-33 64 -26 83 10 25z m303 -44 c16 -16 8 -17 -73 -11 -41 3 -68 9 -60 12 37
16 47 17 84 14 21 -3 43 -9 49 -15z m-3478 0 c13 -5 -5 -10 -55 -14 -76 -6
-95 -3 -70 13 18 11 97 12 125 1z m658 -45 c10 -25 -53 -54 -158 -72 -109 -18
-199 -15 -286 10 -114 34 -107 58 8 30 57 -14 108 -18 190 -17 114 2 118 3
239 62 1 1 4 -6 7 -13z m2112 -30 c55 -24 68 -25 165 -20 58 3 141 14 184 25
46 12 83 16 88 11 29 -29 -128 -64 -295 -66 -112 -1 -126 1 -172 24 -29 14
-51 33 -54 44 -2 13 1 17 10 13 8 -3 41 -17 74 -31z m580 -87 c-4 -5 -50 -9
-104 -9 -86 0 -104 -3 -147 -26 -46 -24 -48 -25 -29 -4 41 46 85 57 206 52 45
-2 77 -8 74 -13z m-3132 -3 c18 -7 40 -22 50 -34 18 -20 18 -20 -24 1 -33 16
-60 21 -114 19 -38 0 -86 2 -105 6 -34 6 -33 6 20 12 96 11 140 10 173 -4z
m3320 -37 c20 -6 37 -12 37 -14 0 -2 -38 -1 -84 2 -73 5 -93 3 -145 -17 -33
-12 -78 -38 -101 -57 -22 -20 -44 -33 -47 -29 -17 17 103 105 166 122 46 13
103 10 174 -7z m-3516 -10 c52 -25 141 -104 130 -115 -4 -4 -24 9 -45 29 -70
68 -176 98 -280 79 -61 -11 -58 2 3 17 71 16 145 13 192 -10z m3581 -66 l37
-17 -100 -6 c-97 -5 -102 -7 -149 -43 -51 -40 -65 -42 -47 -8 15 28 96 74 145
82 66 11 75 10 114 -8z m-3673 -21 c44 -22 92 -68 82 -78 -6 -7 -27 6 -80 48
-24 19 -43 24 -118 26 -49 2 -89 8 -89 12 0 27 149 21 205 -8z m-34 -93 c29
-18 59 -29 82 -29 48 0 56 -17 12 -26 -35 -6 -40 -4 -140 49 -37 19 -74 23
-135 13 -35 -6 -42 -5 -33 4 36 38 146 32 214 -11z m3766 18 c16 -16 16 -17 0
-17 -9 0 -37 5 -62 12 -43 11 -47 10 -115 -25 -70 -37 -121 -46 -150 -27 -11
7 -6 10 20 10 19 0 49 8 65 17 17 9 46 25 65 35 44 24 151 21 177 -5z m-3200
-42 c38 -12 67 -72 68 -135 0 -48 -5 -62 -30 -94 -16 -21 -34 -44 -39 -51 -6
-8 1 -21 23 -41 38 -35 62 -126 44 -166 -11 -21 -12 -20 -13 17 -1 48 -25 118
-41 124 -6 2 -19 11 -28 20 -9 9 -28 17 -41 18 -203 16 -210 16 -230 -2 -28
-25 -45 -92 -31 -122 13 -27 44 -42 78 -35 32 6 29 47 -4 47 -29 1 -37 10 -19
24 19 16 62 -2 71 -29 8 -25 -6 -44 -46 -60 -40 -17 -75 -1 -93 41 -13 30 -11
49 9 117 7 22 6 22 -93 22 -93 0 -102 -2 -116 -22 -25 -35 -21 -100 8 -127 34
-32 80 -26 84 11 2 19 -2 28 -17 33 -12 3 -26 3 -32 -1 -7 -4 -10 -1 -7 7 12
37 78 8 78 -34 0 -26 -28 -57 -51 -57 -74 0 -120 84 -89 164 l10 26 -85 1
c-162 3 -160 3 -173 -26 -18 -39 -15 -99 6 -118 27 -24 76 -26 86 -2 7 19 -20
46 -39 39 -9 -4 -15 0 -15 10 0 19 40 22 58 4 7 -7 12 -27 12 -45 0 -68 -83
-70 -128 -3 -24 35 -24 42 -6 124 l7 28 -94 -2 c-118 -3 -119 -3 -119 14 0 19
20 25 51 14 15 -5 55 -8 90 -6 l64 3 -3 66 c-4 63 -2 67 28 92 61 51 135 19
110 -47 -11 -30 -41 -34 -61 -9 -13 15 -12 15 9 4 18 -10 23 -9 28 3 12 31 -1
51 -32 54 -64 6 -93 -77 -50 -143 14 -21 20 -22 128 -20 62 2 115 3 118 4 3 0
4 29 2 64 -3 53 -1 65 18 85 17 18 31 22 62 20 51 -4 68 -26 48 -62 -9 -18
-21 -26 -39 -25 l-26 1 25 7 c49 14 32 71 -21 71 -53 0 -74 -64 -45 -135 l15
-35 95 0 95 0 -6 65 c-5 59 -4 68 17 90 29 31 81 34 110 5 23 -23 25 -39 7
-64 -14 -20 -58 -19 -64 1 -3 7 3 9 15 6 27 -7 40 33 19 54 -24 24 -66 8 -82
-31 -15 -36 -6 -95 18 -114 13 -11 213 -22 223 -13 3 3 9 6 12 6 22 2 74 39
85 63 49 95 13 193 -72 197 -14 0 -38 -12 -58 -31 -27 -26 -33 -28 -33 -13 0
20 39 61 51 53 4 -2 10 -1 13 4 5 9 41 8 73 -3z m2481 5 c1 -2 6 -3 11 -4 24
-3 70 -48 76 -75 16 -74 -56 -143 -112 -108 -22 14 -16 74 9 91 28 20 37 12
15 -12 -10 -10 -17 -28 -17 -41 0 -47 58 -34 86 20 14 28 14 33 0 55 -15 22
-69 57 -91 59 -5 0 -23 -6 -40 -15 -74 -41 -51 -209 34 -242 14 -5 76 -9 136
-9 105 1 111 3 133 27 47 54 17 149 -46 142 -21 -2 -28 -9 -30 -30 -3 -25 0
-28 25 -28 26 -1 27 -1 9 -15 -36 -27 -79 21 -57 63 24 46 124 29 137 -23 7
-26 1 -75 -11 -108 -7 -16 0 -18 96 -15 l104 3 14 41 c15 44 10 84 -15 108 -8
9 -11 16 -6 16 5 0 17 -9 27 -20 14 -15 17 -32 13 -84 l-4 -64 116 -4 c127 -4
135 -1 146 59 9 46 -2 80 -30 99 -20 12 -29 13 -46 4 -29 -16 -24 -56 8 -53
27 3 28 -3 3 -17 -25 -13 -48 -4 -55 22 -12 47 36 83 87 65 45 -15 60 -47 56
-119 l-4 -63 67 -3 c37 -2 76 2 87 8 25 13 53 2 49 -19 -3 -14 -17 -15 -106
-12 l-103 3 7 -64 c6 -63 5 -66 -26 -101 -20 -23 -41 -37 -56 -37 -29 0 -64
33 -64 60 0 19 32 60 48 60 4 0 13 -4 21 -9 16 -11 6 -32 -13 -25 -17 7 -40
-22 -32 -41 6 -16 52 -20 74 -6 34 21 30 131 -6 149 -9 5 -64 8 -122 8 -99 -1
-105 -2 -102 -21 16 -108 -7 -158 -76 -163 -32 -2 -43 1 -56 20 -21 29 -20 30
9 62 26 29 55 35 55 11 0 -9 -9 -15 -24 -15 -21 0 -36 -16 -36 -40 0 -5 9 -14
20 -20 26 -14 77 12 90 45 12 30 3 84 -18 108 -12 14 -31 17 -98 17 -111 0
-116 -2 -98 -45 19 -47 18 -74 -7 -114 -19 -31 -23 -33 -60 -28 -48 6 -69 22
-69 52 0 29 22 47 51 43 36 -5 36 -28 0 -28 -24 0 -31 -4 -31 -20 0 -37 77
-34 102 4 12 18 9 53 -8 96 l-16 40 -103 0 c-111 0 -155 -12 -191 -52 -33 -35
-46 -66 -51 -119 -4 -42 -2 -50 22 -71 15 -13 30 -23 33 -24 4 0 15 -4 24 -8
17 -8 63 15 86 43 6 8 12 32 12 53 0 29 -6 41 -25 54 -14 9 -27 15 -28 13 -2
-2 -9 -12 -16 -22 -12 -15 -11 -20 4 -37 13 -14 15 -24 8 -31 -7 -7 -17 -2
-32 17 -28 35 -27 45 8 78 21 21 35 26 51 21 27 -9 60 -62 60 -98 0 -46 -34
-97 -64 -97 -8 0 -17 -4 -21 -9 -5 -10 -27 -8 -65 4 -11 3 -31 20 -45 36 -20
24 -25 41 -25 82 0 60 28 127 60 150 l23 16 -31 30 c-39 40 -56 91 -49 152 7
60 26 97 58 113 20 10 57 13 67 6z m-3298 -20 c8 -5 12 -12 8 -15 -9 -9 -59 6
-52 16 7 12 25 11 44 -1z m4104 1 c3 -5 -7 -11 -22 -14 -31 -6 -37 -3 -27 12
8 13 42 14 49 2z m-3414 -112 c0 -22 35 -51 56 -47 30 5 41 34 21 56 -23 25
-22 35 2 22 32 -16 36 -48 10 -76 -36 -38 -99 -15 -99 37 0 10 -3 26 -6 36 -5
15 -4 15 5 3 6 -8 11 -22 11 -31z m3013 17 c-23 -21 -26 -28 -17 -43 7 -10 19
-17 28 -15 9 2 16 -2 16 -8 0 -12 -29 -13 -47 -2 -6 4 -14 19 -18 33 -7 30 15
59 46 59 18 0 17 -3 -8 -24z m-2903 -330 c0 -17 -5 -37 -12 -44 -15 -15 -48
-16 -48 -2 0 6 7 10 16 10 25 0 14 54 -12 58 -58 8 -72 -101 -16 -129 45 -22
90 -19 117 9 14 14 25 19 25 13 0 -7 -11 -22 -24 -35 -19 -17 -36 -22 -68 -21
-63 2 -83 13 -96 49 -20 55 -15 85 22 122 33 33 34 33 65 18 25 -13 31 -22 31
-48z m3530 16 c0 -11 -20 -33 -44 -50 -25 -18 -47 -41 -51 -51 -8 -27 9 -64
51 -110 21 -24 31 -41 22 -41 -23 0 -55 28 -72 65 -20 42 -48 46 -71 11 -22
-33 -11 -70 31 -103 19 -16 50 -41 69 -57 19 -15 35 -35 35 -44 0 -12 -6 -10
-27 10 -16 14 -43 34 -61 44 -19 10 -40 34 -47 52 -15 33 -33 40 -53 20 -33
-33 12 -109 92 -159 69 -44 106 -79 106 -101 0 -15 -7 -12 -35 17 -20 19 -42
35 -49 35 -19 0 -104 78 -122 111 -18 36 -41 37 -54 3 -23 -58 -16 -68 122
-182 89 -74 121 -119 144 -201 23 -80 9 -117 -16 -43 -18 53 -87 150 -149 210
-84 80 -121 112 -130 112 -5 0 -17 -21 -27 -46 l-17 -45 101 -102 c56 -56 110
-113 120 -127 59 -78 102 -213 102 -323 0 -43 7 -84 20 -118 22 -55 22 -63 -3
-54 -25 10 -44 88 -46 186 -2 64 -9 108 -23 146 -36 98 -194 314 -251 345 -26
14 -47 -12 -47 -58 0 -24 12 -44 56 -90 84 -89 146 -174 187 -256 48 -95 66
-221 48 -333 -18 -106 -22 -236 -10 -279 6 -20 9 -47 7 -59 -3 -20 -5 -19 -21
10 -10 18 -18 50 -19 70 -2 59 12 365 18 374 2 4 0 10 -5 14 -5 3 -10 22 -9
43 1 107 -58 219 -191 362 -79 86 -91 86 -99 -4 l-4 -55 85 -81 c107 -102 136
-154 143 -266 7 -116 5 -170 -11 -259 -8 -44 -17 -106 -21 -137 -3 -32 -10
-58 -14 -58 -21 0 -20 63 2 146 24 95 35 309 17 330 -5 7 -9 16 -7 20 7 28
-81 166 -157 249 -40 43 -46 41 -60 -23 -6 -29 -1 -42 38 -100 24 -37 59 -97
76 -134 40 -87 40 -145 0 -308 -39 -158 -40 -254 -4 -361 31 -89 18 -120 -17
-43 -20 43 -23 64 -23 184 1 113 4 147 24 210 24 75 33 189 19 240 -12 47 -86
185 -111 208 l-25 23 -17 -70 c-10 -40 -14 -79 -9 -88 4 -10 8 -20 8 -23 1 -3
7 -15 15 -28 27 -50 60 -152 66 -208 5 -44 0 -89 -18 -179 -58 -280 -56 -327
19 -478 27 -55 48 -114 52 -142 6 -57 -12 -55 -22 2 -3 21 -28 78 -56 127 -75
134 -82 217 -34 431 35 156 38 205 24 293 -19 111 -67 199 -85 155 -4 -10 -9
-29 -10 -43 -1 -14 -6 -42 -10 -62 -6 -32 -4 -42 19 -68 25 -30 31 -52 27 -95
-4 -49 -15 -45 -21 8 -7 56 -35 106 -51 90 -4 -5 -13 -36 -20 -70 -12 -58 -11
-65 9 -110 48 -103 63 -259 42 -423 -15 -112 -73 -215 -188 -333 -43 -43 -48
-46 -60 -30 -11 16 -18 11 -71 -46 -66 -71 -81 -73 -108 -16 -12 25 -21 34
-32 29 -31 -13 -136 -12 -162 2 -57 29 -80 101 -49 152 23 38 33 40 53 9 18
-28 82 -90 91 -88 3 0 14 -7 25 -18 12 -12 28 -17 43 -14 l25 5 -33 66 c-65
129 -68 304 -6 352 l26 21 28 -29 c42 -41 48 -116 17 -197 -31 -80 -31 -152
-1 -185 17 -18 25 -21 34 -12 9 9 9 18 -1 38 -12 27 -7 64 9 64 5 0 23 -12 41
-27 50 -42 98 -38 149 12 57 55 105 138 126 215 35 131 23 370 -22 439 l-18
26 -15 -35 c-19 -43 -19 -122 -2 -218 7 -41 10 -90 6 -110 -13 -73 -64 -166
-80 -150 -3 3 7 31 22 64 22 49 26 73 27 151 1 73 -2 96 -15 109 -15 15 -19
13 -44 -20 -26 -34 -26 -38 -20 -123 6 -75 4 -95 -13 -133 -20 -47 -57 -88
-69 -77 -3 4 1 15 9 24 31 36 48 83 48 137 0 30 -3 61 -6 70 -5 14 -8 14 -30
-1 -39 -25 -30 4 20 72 56 74 99 161 144 290 39 113 83 285 76 296 -2 4 0 10
6 14 6 4 8 10 5 14 -2 5 4 48 15 97 11 49 34 157 51 239 42 207 67 293 126
435 82 197 174 319 302 401 53 34 61 35 61 11z m-4514 -36 c33 -24 76 -62 95
-84 85 -100 181 -295 233 -474 25 -86 35 -132 80 -348 14 -63 30 -140 36 -170
6 -30 14 -62 17 -70 8 -20 8 -20 37 -135 52 -208 130 -404 191 -480 45 -57 59
-85 42 -85 -7 0 -19 6 -25 12 -22 22 -33 -12 -29 -85 3 -53 10 -76 30 -104 15
-20 24 -39 22 -41 -12 -13 -39 14 -60 60 -26 55 -30 103 -16 177 8 38 6 50
-15 82 -49 79 -64 62 -63 -76 0 -83 4 -109 24 -155 26 -61 24 -78 -6 -42 -46
58 -62 197 -34 302 19 72 19 89 -5 145 -24 55 -39 51 -57 -17 -21 -76 -25
-121 -24 -228 2 -131 29 -238 80 -318 41 -62 103 -122 127 -122 23 0 78 25 93
43 31 38 61 3 41 -48 -23 -60 18 -54 46 6 17 39 17 43 0 102 -35 122 -39 145
-32 190 15 101 79 117 118 30 17 -39 20 -59 14 -120 -6 -71 -41 -179 -74 -231
-17 -26 -11 -38 15 -27 10 5 21 8 24 7 13 -2 139 120 139 134 0 22 27 17 44
-8 34 -49 10 -135 -45 -163 -17 -9 -63 -18 -102 -20 -40 -2 -75 -4 -78 -5 -4
0 -12 -13 -19 -29 -19 -46 -40 -47 -77 -4 -18 21 -32 41 -33 44 0 4 -12 14
-26 24 -24 16 -26 16 -38 0 -11 -15 -18 -10 -67 46 -152 176 -180 242 -181
424 0 147 14 248 47 329 23 57 24 65 13 120 -22 103 -68 81 -68 -33 0 -52 -2
-62 -12 -52 -8 7 -13 36 -12 66 0 46 5 60 27 83 27 28 27 31 17 83 -6 30 -14
61 -17 69 -4 8 -5 18 -5 23 1 4 -5 7 -13 7 -33 0 -75 -142 -75 -259 0 -35 12
-120 27 -190 27 -130 34 -241 20 -322 -4 -26 -28 -79 -52 -120 -25 -41 -53
-99 -62 -129 -9 -30 -18 -49 -21 -42 -9 26 10 84 59 181 74 147 75 178 13 516
-21 114 -9 207 40 330 19 47 33 93 30 103 -2 9 -9 41 -15 70 -7 28 -15 52 -19
52 -11 0 -46 -43 -75 -92 -15 -27 -24 -48 -19 -48 4 0 -1 -9 -11 -20 -10 -11
-15 -20 -12 -20 4 0 2 -12 -4 -27 -17 -44 -11 -146 15 -246 46 -178 43 -348
-7 -428 -31 -50 -32 -17 -2 70 32 96 34 200 4 309 -12 42 -27 114 -34 160 -19
126 -3 186 87 320 41 62 48 78 43 106 -11 55 -20 63 -46 41 -32 -29 -137 -162
-155 -197 -9 -17 -17 -42 -19 -57 -2 -14 -4 -28 -5 -31 -9 -29 5 -243 21 -312
21 -97 24 -144 10 -153 -6 -3 -12 9 -15 27 -3 18 -12 80 -20 138 -9 58 -17
164 -18 235 -2 108 1 136 16 168 18 36 180 207 197 207 5 0 9 17 9 39 0 42
-17 101 -30 101 -16 0 -182 -183 -210 -233 -58 -101 -61 -123 -48 -396 10
-219 9 -250 -5 -283 -26 -61 -36 -44 -20 31 14 62 14 83 -1 207 -30 261 -24
318 46 442 38 65 135 186 184 226 29 24 44 45 44 60 0 36 -21 86 -35 86 -22 0
-72 -48 -126 -121 -29 -38 -56 -69 -60 -69 -5 0 -9 -5 -9 -11 0 -6 -17 -38
-37 -71 -50 -81 -72 -170 -69 -281 1 -61 -2 -94 -12 -108 -18 -26 -36 -24 -28
4 16 52 17 65 16 119 -1 85 27 205 67 281 26 50 67 98 150 182 97 97 113 118
108 137 -10 33 -34 68 -46 68 -6 0 -59 -48 -118 -107 -99 -100 -136 -153 -167
-238 -7 -18 -8 -17 -11 7 -11 74 46 172 144 250 117 94 133 112 133 150 0 19
-6 43 -14 53 -12 16 -16 17 -30 6 -9 -7 -16 -19 -16 -26 0 -17 -70 -79 -112
-101 -18 -9 -45 -28 -60 -42 -21 -20 -28 -22 -28 -10 0 18 56 70 98 92 36 19
112 101 112 121 0 24 -19 55 -34 55 -7 0 -24 -17 -37 -37 -13 -20 -39 -45 -58
-55 -18 -11 -40 -26 -48 -34 -9 -8 -17 -13 -19 -11 -11 11 13 39 57 68 60 38
79 63 79 104 0 57 -49 76 -74 28 -17 -34 -64 -79 -72 -70 -4 4 9 24 29 46 19
21 38 54 42 72 7 30 4 36 -44 77 -28 24 -51 48 -51 53 0 21 40 6 96 -35z
m4011 -107 c80 -42 79 -42 173 -23 34 6 34 6 18 -12 -14 -14 -34 -18 -91 -18
-65 -1 -78 2 -118 29 -27 18 -63 32 -94 35 -47 6 -48 7 -25 18 40 17 55 14
137 -29z m257 35 c24 -9 19 -24 -8 -24 -26 0 -40 12 -29 24 8 8 17 8 37 0z
m-4079 -14 c-3 -5 -17 -10 -31 -10 -13 0 -24 5 -24 10 0 6 14 10 31 10 17 0
28 -4 24 -10z m365 0 c11 -7 6 -10 -21 -10 -22 0 -63 -14 -104 -36 -63 -33
-74 -36 -131 -31 -63 5 -88 13 -80 26 3 4 31 3 64 -3 58 -9 61 -8 123 27 65
37 119 46 149 27z m-6 -74 c-5 -14 -45 -45 -83 -65 -42 -23 -140 -32 -178 -16
-18 8 -33 16 -33 19 0 3 38 4 85 4 73 0 90 3 128 25 24 14 49 33 56 41 15 18
33 12 25 -8z m3383 -13 c45 -37 49 -38 142 -43 83 -4 93 -7 74 -17 -34 -20
-131 -16 -183 8 -51 23 -90 56 -90 76 0 20 7 16 57 -24z m-152 -52 c23 -21 68
-48 101 -61 51 -19 72 -21 148 -17 103 7 105 -2 4 -19 -84 -14 -126 -11 -176
15 -42 21 -132 98 -132 112 0 16 12 10 55 -30z m-3135 -22 c-30 -28 -68 -58
-84 -66 -46 -24 -133 -28 -198 -8 -62 18 -79 31 -25 19 17 -4 63 -6 102 -6 56
1 82 8 130 31 34 17 71 42 85 56 13 14 28 25 34 25 6 -1 -14 -24 -44 -51z
m170 -74 c-34 -41 -86 -55 -185 -53 -90 3 -116 10 -77 22 9 3 53 5 97 3 61 -1
91 3 123 17 23 10 42 24 42 29 0 6 3 7 6 4 4 -4 1 -14 -6 -22z m2967 -25 c50
0 94 -4 97 -9 3 -5 -39 -9 -94 -10 -102 -2 -140 8 -170 43 -10 13 -4 12 31 -4
34 -15 66 -20 136 -20z m301 -32 c-2 -7 -47 -27 -99 -45 -52 -17 -115 -38
-141 -47 -32 -11 -66 -35 -103 -73 -66 -68 -76 -48 -12 26 49 58 107 86 214
107 42 8 87 20 102 28 34 18 44 19 39 4z m-3713 -7 c3 -5 31 -15 63 -20 77
-15 202 -53 202 -62 0 -3 9 -9 19 -12 27 -7 81 -85 80 -116 0 -22 -3 -19 -19
19 -10 25 -19 41 -19 37 -1 -4 -12 2 -26 15 -27 25 -93 52 -227 93 -81 25
-133 55 -95 55 9 0 18 -4 22 -9z m723 -22 c51 -10 114 -50 100 -64 -4 -4 -32
5 -62 20 -31 15 -62 25 -70 22 -7 -3 -18 -1 -23 4 -13 13 -195 -5 -285 -28
-51 -13 -70 -15 -79 -6 -26 26 216 75 326 66 22 -1 64 -8 93 -14z m2507 9 c77
-15 145 -38 145 -50 0 -11 -21 -9 -155 16 -99 19 -222 7 -304 -30 -62 -28 -90
-19 -43 14 29 22 104 43 155 44 15 1 30 4 32 8 7 11 112 10 170 -2z m400 -125
c-18 -10 -40 -13 -64 -8 -75 13 -77 20 -6 25 87 6 106 2 70 -17z m-3470 6 c29
-1 30 -1 5 -9 -43 -14 -105 -11 -126 6 -18 14 -15 15 36 10 30 -3 69 -6 85 -7z
m525 -55 c36 -19 99 -63 140 -99 89 -77 113 -90 203 -106 37 -7 67 -16 67 -20
0 -12 -68 -20 -107 -13 -54 9 -107 42 -198 124 -85 76 -153 121 -188 125 -12
1 -24 3 -27 4 -3 2 -41 2 -85 1 -99 -2 -90 13 13 21 94 7 101 5 182 -37z
m2554 38 c16 -4 32 -14 34 -20 3 -9 -3 -10 -24 -2 -33 13 -124 11 -141 -3 -7
-5 -13 -6 -13 -2 0 4 -7 1 -17 -6 -9 -8 -18 -13 -20 -11 -11 9 -117 -64 -187
-127 -44 -40 -96 -81 -117 -92 -42 -21 -126 -27 -155 -11 -23 13 -13 17 59 26
59 7 107 32 175 90 124 106 230 161 317 164 33 1 73 -1 89 -6z m-2954 -51 c0
-29 -159 -40 -205 -13 -13 7 8 10 70 10 48 0 90 3 93 6 9 10 42 7 42 -3z
m3331 -4 c-28 -29 -169 -30 -206 -3 -14 10 5 12 98 12 64 -1 112 -5 108 -9z
m-46 -83 c-34 -25 -97 -37 -190 -38 -94 -1 -165 9 -165 23 0 5 60 8 133 8 87
0 149 5 182 14 56 17 70 14 40 -7z m-3380 -5 c64 -13 244 -12 260 1 12 10 25
4 25 -11 0 -15 -75 -29 -156 -29 -86 0 -214 31 -214 51 0 7 8 8 18 4 9 -3 40
-11 67 -16z m3405 -44 c0 -25 -45 -64 -108 -93 -57 -26 -59 -27 -309 -29 -268
-2 -284 -4 -340 -56 -13 -11 -26 -18 -29 -15 -10 10 20 48 60 75 32 23 52 28
128 33 49 3 91 3 93 0 2 -3 79 -5 172 -5 l168 0 51 33 c28 18 62 41 74 52 28
24 40 25 40 5z m-3420 -38 c88 -59 126 -71 213 -63 40 3 98 7 130 8 32 0 60 4
62 8 2 4 44 7 93 6 79 -1 93 -4 128 -28 38 -27 84 -88 66 -88 -5 0 -19 11 -31
24 -50 53 -68 56 -317 49 -254 -7 -273 -4 -359 53 -53 35 -86 74 -62 74 7 0
41 -20 77 -43z m17 -112 l86 -46 158 2 c87 0 163 -2 168 -6 33 -20 -2 -25
-156 -22 -148 3 -175 6 -227 26 -51 21 -146 90 -123 91 5 0 47 -20 94 -45z
m3357 -2 c-54 -44 -143 -62 -322 -65 -89 -2 -162 0 -162 3 0 17 47 23 198 25
l164 3 71 40 c74 40 104 37 51 -6z m6 -64 c0 -16 -70 -79 -105 -94 -17 -7 -89
-16 -160 -19 -72 -3 -130 -6 -130 -7 0 -1 -43 -3 -95 -4 -52 -1 -105 -5 -117
-9 -34 -11 -37 11 -4 29 34 17 152 36 163 26 4 -3 76 -4 160 -1 l154 5 64 42
c77 49 70 46 70 32z m-3346 -41 l71 -42 135 -2 c77 -1 140 3 148 9 8 6 16 6
25 -2 8 -6 17 -8 20 -4 11 11 56 12 63 2 3 -5 9 -7 14 -4 16 10 60 -18 60 -38
0 -17 -2 -18 -16 -6 -12 10 -71 13 -243 13 -251 1 -234 -3 -321 75 -25 22 -41
40 -36 41 5 0 41 -19 80 -42z m1053 10 c12 -13 26 -41 32 -63 14 -54 15 -105
2 -177 0 -5 -6 -8 -12 -8 -7 0 -9 9 -5 23 8 34 -27 87 -58 87 -28 0 -34 -7
-57 -64 -23 -58 -34 -54 -33 11 0 43 8 73 28 113 26 53 62 100 76 100 4 0 16
-10 27 -22z m1199 14 c35 -23 78 -125 89 -209 6 -54 -4 -54 -31 -1 -25 51 -43
63 -76 55 -28 -7 -49 -45 -43 -76 7 -39 -11 -21 -22 22 -19 65 -4 152 32 191
25 27 33 30 51 18z m-1387 -29 c19 -48 30 -126 20 -145 -6 -10 -7 -23 -4 -28
6 -10 -24 -90 -34 -90 -3 0 -6 18 -6 40 0 23 -7 46 -16 55 -14 14 -18 14 -42
-6 -34 -26 -54 -64 -68 -129 -6 -27 -15 -50 -20 -50 -6 0 -8 4 -5 8 2 4 6 45
7 91 3 75 7 90 37 140 38 63 99 141 111 141 5 0 14 -12 20 -27z m1600 -23 c42
-53 102 -160 96 -170 -3 -5 -1 -11 5 -15 13 -8 13 -145 0 -145 -5 0 -10 10
-10 23 0 70 -63 167 -109 167 -18 0 -21 -6 -21 -45 0 -50 -16 -60 -26 -17 -4
15 -11 33 -17 40 -14 17 -13 108 2 160 15 54 37 55 80 2z m-876 -30 l45 -40
34 34 c19 19 47 38 61 42 54 13 123 -16 139 -57 9 -22 -28 -79 -50 -79 -25 0
-58 35 -42 45 6 4 19 0 29 -9 21 -19 31 -12 31 25 0 17 -8 34 -22 43 -90 63
-226 -94 -152 -175 21 -24 40 -24 53 -1 12 22 12 34 -1 50 -8 9 -6 12 6 12 20
0 41 -42 33 -65 -10 -23 -54 -37 -79 -24 -16 8 -30 8 -58 -1 -43 -14 -76 -2
-89 33 -10 25 12 57 38 57 13 -1 13 -3 -3 -15 -11 -8 -16 -15 -11 -15 5 0 4
-5 -3 -12 -9 -9 -7 -14 6 -24 22 -17 37 -17 55 0 19 19 15 98 -7 131 -19 29
-85 65 -119 65 -42 0 -78 -47 -58 -78 12 -19 47 -10 43 11 -2 9 2 17 8 17 5 0
10 -16 10 -35 0 -32 -3 -35 -28 -35 -40 0 -66 31 -57 67 12 48 45 69 111 72
23 1 43 -9 77 -39z m-260 -54 c30 -54 29 -123 -2 -188 -24 -50 -48 -67 -31
-22 24 62 -5 144 -50 144 -21 0 -58 -42 -66 -77 -4 -12 -11 -23 -16 -23 -6 0
-8 10 -4 23 4 12 9 30 11 41 8 34 46 101 78 133 35 37 43 34 80 -31z m697 17
c52 -59 67 -89 76 -143 8 -50 -10 -49 -21 0 -8 38 -46 64 -79 56 -33 -8 -48
-57 -36 -116 4 -25 6 -47 4 -49 -2 -2 -15 21 -29 52 -25 54 -39 132 -27 152 4
6 7 15 8 22 3 17 44 73 54 73 4 0 27 -21 50 -47z m-2046 12 c27 -41 95 -73
189 -89 48 -9 96 -20 107 -26 25 -13 75 -79 67 -87 -4 -3 -16 6 -28 21 -29 37
-61 51 -159 71 -47 9 -94 22 -104 27 -26 14 -106 89 -106 99 0 17 18 9 34 -16z
m3302 -31 c-50 -43 -95 -63 -167 -75 -84 -13 -135 -36 -164 -72 -31 -41 -42
-30 -13 13 36 52 66 68 159 83 100 17 145 36 185 78 18 19 30 25 33 17 2 -6
-13 -27 -33 -44z m57 -4 c-9 -33 -77 -85 -153 -115 -81 -33 -143 -81 -170
-134 -10 -21 -26 -43 -34 -50 -14 -12 -16 -9 -16 18 0 53 73 121 199 185 58
30 119 68 135 85 35 36 46 39 39 11z m-3362 -24 c22 -18 78 -53 126 -77 47
-24 104 -58 127 -75 47 -36 86 -108 68 -126 -8 -8 -16 -1 -31 23 -54 92 -69
106 -168 154 -87 42 -173 105 -173 127 0 14 11 9 51 -26z m656 -28 c4 -7 9
-33 10 -58 1 -25 5 -53 7 -62 3 -13 -2 -18 -15 -18 -32 0 -57 -36 -71 -100 -6
-33 -15 -60 -20 -60 -13 0 -21 69 -14 123 10 73 62 187 86 187 5 0 12 -6 17
-12z m2041 -20 c38 -41 65 -118 65 -188 1 -36 -4 -73 -10 -84 -9 -16 -12 -11
-23 35 -15 68 -34 97 -65 105 -24 6 -24 8 -20 78 3 39 5 72 5 74 1 10 30 -2
48 -20z m626 -106 c-23 -58 -72 -97 -151 -122 -37 -11 -82 -29 -100 -40 -18
-11 -33 -15 -33 -10 0 14 49 44 124 75 84 35 117 62 141 115 24 53 42 37 19
-18z m-3306 3 c23 -48 68 -82 152 -115 60 -24 100 -49 100 -62 0 -5 -15 -1
-33 11 -18 11 -55 25 -82 31 -77 17 -123 52 -151 116 -27 60 -27 64 -16 64 4
0 18 -20 30 -45z m1475 23 c18 -19 45 -87 53 -130 4 -28 0 -50 -19 -92 -14
-31 -28 -56 -30 -56 -3 0 -3 27 0 60 5 49 2 64 -12 80 -35 39 -72 18 -99 -56
l-15 -39 0 48 c-1 56 26 120 71 166 35 35 35 35 51 19z m386 -23 c46 -53 63
-92 67 -159 l4 -61 -18 50 c-12 32 -28 55 -45 65 -25 14 -28 13 -49 -7 -17
-18 -21 -33 -20 -78 1 -30 -1 -55 -3 -55 -11 0 -45 82 -45 110 0 36 38 152 54
162 18 12 22 10 55 -27z m-195 -81 c3 -11 0 -29 -8 -39 -14 -19 -15 -19 -26 6
-9 21 -9 32 0 49 13 23 24 18 34 -16z m1184 -89 c4 -53 -1 -80 -24 -147 l-29
-82 -7 49 c-9 62 -2 214 12 251 10 26 12 26 27 11 11 -11 18 -39 21 -82z
m-2367 55 c10 -37 11 -296 0 -285 -31 35 -62 229 -47 290 8 33 37 30 47 -5z
m549 -46 c0 -7 -21 -41 -48 -76 -26 -35 -53 -83 -61 -108 -30 -100 -29 -99
-30 -59 -3 131 79 306 126 267 7 -6 13 -16 13 -24z m1277 4 c37 -40 63 -107
73 -181 12 -91 12 -87 0 -87 -5 0 -12 17 -16 38 -9 47 -37 103 -85 169 -22 29
-39 59 -39 68 0 23 43 18 67 -7z m-1059 -19 c28 -53 -7 -156 -69 -200 -35 -25
-47 -19 -26 12 9 11 13 28 10 35 -3 8 4 37 16 64 11 27 21 62 21 78 0 49 25
55 48 11z m-115 9 c2 -7 -15 -35 -38 -63 -23 -27 -50 -67 -60 -87 -9 -21 -21
-38 -27 -38 -19 0 14 115 44 150 15 18 59 50 69 50 4 0 9 -6 12 -12z m942 -30
c4 -24 16 -58 27 -75 12 -20 17 -41 13 -53 -4 -13 0 -31 10 -46 26 -40 11 -39
-36 3 -48 43 -69 86 -69 138 0 78 44 103 55 33z m100 22 c-3 -5 0 -7 8 -5 30
12 90 -94 85 -152 l-3 -38 -28 55 c-16 30 -32 57 -35 60 -16 11 -62 72 -62 81
0 5 9 9 21 9 11 0 17 -4 14 -10z m-1332 -68 c-9 -15 -24 -36 -34 -47 -26 -31
-41 -65 -60 -135 l-17 -65 -1 75 c-1 85 17 135 68 189 25 27 34 31 46 21 12
-10 12 -15 -2 -38z m-663 -78 c51 -28 58 -45 16 -37 -36 7 -97 63 -125 114
l-24 44 42 -47 c23 -26 64 -59 91 -74z m2295 92 c42 -43 68 -106 73 -183 3
-42 1 -73 -5 -73 -5 0 -15 28 -23 62 -9 41 -28 83 -57 126 -25 36 -47 71 -50
78 -9 23 36 16 62 -10z m734 -8 c-52 -76 -105 -118 -149 -118 -34 0 -23 15 33
42 29 14 68 44 87 66 42 49 60 55 29 10z m-1626 -59 c14 -26 17 -52 15 -109
-3 -63 -8 -83 -33 -124 -17 -27 -40 -56 -53 -64 -21 -14 -21 -12 8 49 34 72
40 138 14 164 -22 22 -36 15 -56 -26 -17 -31 -18 -32 -18 -9 1 53 68 165 94
157 6 -2 19 -19 29 -38z m190 -15 c15 -22 32 -58 37 -79 10 -45 5 -59 -9 -23
-5 13 -16 30 -25 37 -14 12 -19 11 -37 -5 -18 -16 -20 -28 -17 -71 3 -29 16
-74 31 -102 32 -62 20 -66 -23 -8 -60 81 -74 192 -33 270 19 37 40 32 76 -19z
m-1379 4 c13 -18 16 -51 16 -150 0 -127 -7 -153 -29 -100 -39 96 -53 211 -31
253 14 25 25 24 44 -3z m2527 6 c21 -25 15 -120 -12 -198 -14 -38 -31 -72 -38
-74 -12 -4 -13 17 -8 128 7 150 22 187 58 144z m-2215 -9 c7 -17 -18 -54 -75
-113 -27 -27 -42 -53 -46 -79 -12 -67 -15 -60 -12 23 4 90 22 131 73 165 35
23 53 24 60 4z m1938 -26 c41 -36 56 -80 55 -164 l-1 -60 -13 47 c-7 28 -31
69 -57 100 -42 49 -68 89 -68 102 0 18 54 2 84 -25z m-1334 1 c0 -49 -49 -128
-94 -152 -15 -8 -13 0 11 43 17 30 36 71 43 92 12 39 40 51 40 17z m699 -32
c7 -24 24 -60 38 -81 32 -46 25 -56 -15 -23 -34 30 -62 83 -62 120 0 41 26 31
39 -16z m1155 -23 c-21 -32 -78 -70 -116 -77 -42 -8 -34 9 15 32 24 11 59 36
78 56 37 38 51 31 23 -11z m-3017 -6 c24 -22 61 -48 81 -57 32 -14 34 -17 15
-20 -38 -6 -117 49 -144 100 -15 29 0 21 48 -23z m-647 -91 c0 -42 -5 -52 -45
-95 -25 -26 -45 -51 -45 -55 0 -4 16 -8 35 -8 19 0 35 -4 35 -10 0 -5 -22 -10
-48 -10 -64 0 -83 -16 -92 -76 -12 -70 5 -127 48 -169 20 -19 40 -35 44 -35 4
0 12 18 18 40 6 22 13 40 15 40 3 0 4 -24 2 -53 -2 -52 0 -56 44 -98 33 -33
49 -58 58 -94 15 -58 7 -115 -20 -146 -19 -22 -19 -22 8 -39 59 -37 78 -67 78
-127 0 -49 -3 -58 -33 -84 -65 -58 -162 -28 -162 50 1 46 20 71 54 71 19 0 29
-7 36 -26 10 -26 6 -44 -11 -44 -5 0 -9 12 -9 26 0 21 -4 25 -22 22 -19 -2
-24 -10 -26 -46 -3 -39 -1 -43 28 -56 43 -18 75 -10 105 26 29 34 31 66 9 113
-21 44 -57 67 -108 67 -52 1 -101 -24 -126 -65 -27 -44 -27 -148 -1 -200 21
-41 83 -126 91 -127 3 0 13 19 21 42 9 23 21 44 27 46 8 2 7 -9 -3 -38 -23
-66 -19 -84 34 -142 l49 -53 61 0 c55 1 64 4 93 32 27 27 32 41 36 91 4 55 2
60 -24 81 -22 17 -37 21 -62 17 -29 -4 -32 -3 -22 9 15 18 43 19 71 5 30 -17
35 -6 29 60 -7 75 6 90 15 18 10 -82 14 -89 34 -78 21 11 88 17 96 8 4 -3 -12
-9 -34 -13 -64 -11 -78 -29 -84 -113 l-6 -73 52 6 c29 4 61 8 73 10 24 5 44
44 44 85 0 17 5 30 11 30 11 0 9 -55 -2 -99 -3 -11 11 -18 50 -25 30 -6 56
-17 59 -25 3 -10 0 -12 -14 -7 -10 4 -37 10 -61 13 l-42 6 5 -49 c4 -36 1 -54
-10 -69 -15 -19 -15 -17 -9 28 8 62 -13 87 -71 86 -102 -1 -157 -52 -149 -136
5 -42 13 -55 60 -104 59 -61 51 -59 146 -34 16 4 27 3 27 -3 0 -5 -21 -15 -47
-22 l-48 -12 55 -49 c86 -77 187 -107 249 -74 36 18 79 69 87 101 10 41 -5
110 -31 138 -19 21 -33 26 -72 26 -60 0 -89 -19 -103 -68 -8 -31 -7 -41 9 -62
31 -43 101 -35 101 11 0 12 -7 19 -20 19 -11 0 -20 5 -20 10 0 19 48 11 55
-10 16 -49 -24 -86 -80 -76 -39 8 -65 42 -65 85 0 70 44 111 119 111 62 0 91
-15 109 -60 9 -22 20 -40 24 -40 4 0 23 10 43 21 42 25 108 30 147 12 15 -7
48 -34 72 -60 44 -46 45 -46 95 -39 57 8 71 -8 16 -18 -49 -10 -52 -23 -14
-63 51 -53 83 -66 151 -61 47 3 64 10 88 33 81 77 49 214 -45 191 -33 -8 -63
-70 -44 -92 18 -22 57 -17 70 8 7 13 14 18 16 11 8 -23 -17 -53 -45 -53 -33 0
-45 8 -61 37 -14 28 -1 64 35 92 39 31 71 27 110 -14 38 -41 44 -42 70 -14 28
31 97 59 146 59 50 0 109 -25 156 -65 l33 -28 29 34 c30 35 42 29 15 -7 -47
-63 33 -170 148 -198 24 -6 34 -1 62 27 78 78 47 217 -48 217 -42 0 -67 -26
-67 -67 0 -44 16 -73 40 -73 22 0 36 18 32 43 -4 22 14 23 22 1 24 -62 -75
-90 -102 -29 -21 46 -15 93 15 121 24 22 34 25 68 20 22 -4 52 -15 67 -26 l27
-20 37 25 c50 34 88 32 125 -4 56 -56 30 -151 -41 -151 -33 0 -55 29 -45 60 9
29 27 25 19 -4 -4 -18 -1 -27 15 -35 50 -27 86 74 44 122 -23 25 -76 22 -109
-6 -35 -31 -44 -107 -19 -161 29 -61 76 -76 139 -45 49 25 93 64 112 101 13
25 12 32 -6 68 -11 22 -16 40 -10 40 6 0 16 -11 22 -25 13 -30 27 -31 54 -7
37 33 74 52 125 63 44 10 58 8 112 -11 34 -12 74 -33 89 -47 26 -25 26 -25 37
-5 20 38 42 52 82 52 42 0 89 -34 89 -63 0 -31 -23 -77 -41 -82 -24 -8 -69 19
-69 40 0 21 13 19 28 -5 16 -25 38 -26 52 -1 25 48 0 91 -53 91 -40 -1 -64
-19 -78 -58 -24 -69 70 -172 157 -172 61 0 178 99 143 121 -8 5 -22 9 -31 9
-9 0 -20 5 -23 11 -5 7 7 8 38 4 44 -7 46 -6 84 36 43 48 112 83 161 81 17 0
33 -1 35 -2 1 -1 10 -3 21 -5 10 -2 29 -13 42 -26 l23 -22 6 26 c10 40 67 88
111 94 30 4 47 -1 74 -19 45 -31 62 -64 56 -111 -6 -54 -21 -67 -77 -67 -38 0
-51 5 -63 22 -13 19 -14 25 -2 43 14 21 56 33 56 16 0 -6 -6 -11 -13 -11 -7 0
-18 -5 -25 -12 -19 -19 6 -38 49 -38 46 0 64 25 55 75 -8 40 -57 85 -91 85
-64 0 -115 -58 -118 -134 -2 -36 4 -51 29 -83 40 -49 68 -63 130 -63 66 0 107
15 172 62 62 46 64 68 10 83 -52 14 -61 29 -13 21 114 -20 107 -21 154 27 40
42 44 50 48 110 5 63 4 67 -24 95 -30 31 -124 59 -155 47 -23 -9 -41 -60 -34
-95 3 -17 1 -30 -4 -30 -14 0 -23 46 -16 84 8 40 -4 47 -49 34 -16 -4 -39 -8
-50 -8 -29 0 -1 17 51 31 l42 11 -6 60 c-4 45 -2 59 6 54 7 -4 12 -20 12 -36
0 -61 15 -76 92 -86 38 -6 71 -7 72 -4 2 3 0 36 -3 74 -8 79 -30 106 -87 106
-19 0 -34 5 -34 11 0 11 54 8 97 -6 20 -7 23 -3 29 44 3 28 13 59 21 68 13 16
13 15 9 -12 -19 -118 -19 -118 0 -110 53 22 104 13 104 -18 0 -7 -4 -7 -12 1
-18 18 -52 14 -82 -9 -22 -17 -26 -28 -26 -69 0 -27 5 -60 11 -73 16 -35 66
-61 121 -61 45 -1 51 2 105 56 l57 57 -11 43 c-6 24 -14 51 -18 61 -4 10 -3
17 3 17 6 0 18 -20 28 -45 l17 -46 28 27 c15 14 41 52 58 84 25 47 31 70 31
119 0 98 -32 142 -114 161 -42 9 -54 8 -84 -8 -46 -24 -76 -80 -68 -127 12
-63 83 -95 134 -59 37 26 25 112 -14 97 -8 -3 -14 -13 -14 -23 0 -11 -4 -22
-10 -25 -14 -9 -12 39 2 53 17 17 53 15 69 -4 22 -26 15 -95 -11 -116 -64 -52
-181 10 -180 94 1 41 37 106 69 123 32 16 39 33 20 52 -6 6 -15 32 -20 57 -11
63 10 119 68 178 45 46 46 48 40 97 -3 28 -2 51 2 51 12 0 21 -26 21 -56 0
-34 14 -30 60 17 44 45 55 84 47 157 -7 62 -32 82 -106 82 l-56 1 24 19 c13
11 32 20 43 20 17 0 14 7 -21 45 -45 48 -51 73 -36 143 10 42 22 22 17 -30 -3
-49 -1 -56 33 -95 38 -45 55 -53 55 -28 0 25 33 85 47 85 16 0 16 -1 -2 -36
-21 -40 -19 -92 5 -139 24 -47 27 -143 6 -183 -8 -15 -28 -40 -45 -56 -39 -37
-39 -47 0 -69 44 -25 31 -30 -25 -11 l-48 17 -51 -51 c-49 -49 -51 -53 -55
-116 -4 -62 -3 -67 27 -97 29 -29 36 -31 82 -27 66 7 99 37 99 92 0 66 -58
108 -102 74 -37 -29 -29 -86 11 -75 14 3 21 0 21 -9 0 -19 -45 -18 -64 2 -19
18 -20 38 -4 67 38 72 135 59 159 -22 14 -48 -8 -104 -51 -129 -16 -9 -30 -20
-30 -23 0 -3 11 -16 25 -29 34 -32 59 -118 50 -173 -9 -52 -31 -96 -84 -166
-22 -30 -38 -58 -35 -62 3 -5 17 -9 32 -9 65 0 105 -71 80 -145 -17 -50 -53
-67 -92 -41 -30 19 -36 66 -11 86 13 11 14 8 8 -20 -5 -26 -2 -36 12 -47 24
-17 30 -16 49 3 10 10 16 33 16 64 0 41 -4 52 -24 65 -13 9 -43 16 -66 17 -36
0 -48 -5 -82 -39 -47 -47 -56 -90 -38 -177 19 -95 102 -163 168 -140 63 22 81
106 26 120 -34 9 -53 -10 -36 -36 20 -32 14 -46 -9 -23 -45 44 4 108 60 79 76
-40 39 -150 -55 -163 -41 -5 -42 -6 -46 -52 -3 -26 -13 -59 -22 -74 -15 -22
-26 -27 -60 -27 -76 0 -109 49 -67 101 16 21 22 22 45 11 14 -6 26 -16 26 -22
0 -13 -17 -13 -25 0 -12 19 -35 10 -41 -17 -9 -33 15 -53 63 -53 36 0 49 18
60 86 5 27 -1 39 -38 79 -56 61 -86 75 -158 75 -58 0 -61 -1 -106 -47 -43 -45
-46 -51 -41 -93 3 -32 11 -51 31 -67 29 -25 83 -31 103 -11 32 32 -2 93 -39
70 -31 -20 -44 -14 -16 8 14 11 31 20 38 20 23 0 49 -33 49 -63 0 -45 -25 -67
-77 -67 -36 0 -50 6 -73 29 -16 16 -32 41 -35 57 -11 47 -17 60 -22 47 -7 -18
-99 -82 -150 -104 -50 -21 -142 -25 -176 -8 -12 6 -36 24 -52 40 l-30 28 -41
-47 c-48 -55 -81 -63 -132 -32 -64 39 -63 110 2 148 28 17 34 17 54 4 25 -16
31 -72 9 -72 -9 0 -12 9 -9 29 4 27 2 29 -24 26 -84 -9 -70 -125 16 -130 23
-1 38 6 60 31 73 84 34 196 -68 197 -50 0 -83 -15 -133 -60 -44 -40 -43 -36
-24 -138 6 -29 6 -29 -9 -11 -9 11 -16 28 -16 38 0 28 -15 22 -65 -26 -84 -82
-168 -86 -251 -13 -44 38 -48 40 -58 23 -38 -64 -81 -79 -134 -46 -59 37 -68
108 -17 132 30 14 75 -3 75 -27 0 -15 -1 -15 -16 -1 -30 31 -74 13 -74 -29 0
-12 13 -34 29 -49 53 -51 113 -18 127 70 5 34 2 45 -20 72 -29 34 -117 72
-167 72 -17 0 -47 -7 -67 -17 -36 -16 -102 -70 -102 -83 0 -4 18 -12 40 -19
55 -16 51 -31 -5 -19 l-46 10 -52 -55 c-41 -42 -65 -58 -106 -70 -62 -18 -83
-13 -125 32 l-30 31 -29 -35 c-24 -30 -35 -35 -70 -35 -57 0 -117 32 -162 86
-32 38 -43 45 -64 40 -14 -2 -39 -8 -56 -11 -29 -6 -29 -6 -10 10 11 9 32 19
48 22 36 7 34 15 -10 53 -46 41 -91 60 -142 60 -51 0 -83 -12 -122 -47 -50
-45 -59 -70 -43 -122 15 -51 26 -61 73 -61 45 0 71 24 71 67 0 38 -22 53 -51
35 -31 -19 -46 -13 -20 8 45 38 91 15 91 -46 0 -51 -36 -84 -94 -84 -37 0 -48
5 -70 31 -14 17 -26 36 -26 42 0 7 -12 -3 -26 -21 -35 -44 -73 -62 -134 -62
-60 0 -116 26 -153 70 -32 38 -45 38 -58 0 -13 -37 -34 -40 -25 -4 18 72 18
83 -3 113 -70 98 -198 103 -247 10 -18 -36 -8 -84 31 -135 21 -28 31 -33 57
-30 73 8 104 84 51 125 -24 20 -28 20 -43 6 -11 -10 -16 -24 -12 -38 5 -20 4
-20 -11 -8 -24 19 -21 43 9 64 18 14 28 16 38 8 7 -6 15 -9 18 -6 11 11 40
-36 45 -72 4 -29 0 -44 -17 -66 -12 -15 -25 -25 -30 -22 -5 3 -11 1 -15 -5 -3
-5 -19 -10 -35 -10 -22 0 -39 11 -71 49 l-43 50 -42 -39 c-79 -73 -189 -62
-300 31 -72 60 -89 62 -99 12 -10 -55 -30 -81 -71 -92 -56 -15 -114 21 -114
70 0 46 67 78 98 47 20 -20 13 -27 -17 -15 -31 12 -61 -2 -61 -28 0 -28 36
-58 70 -57 50 1 73 30 78 100 4 57 4 58 -37 95 -38 34 -46 37 -100 37 -33 0
-72 -5 -88 -11 -34 -13 -90 -64 -109 -102 -19 -36 -4 -87 33 -117 23 -18 27
-18 54 -4 20 10 29 22 29 40 0 28 -25 43 -43 25 -13 -13 -27 -15 -27 -3 0 5
11 14 24 21 54 30 92 -43 46 -89 -52 -52 -134 -5 -146 83 -6 45 -8 47 -39 47
-42 0 -80 31 -95 76 -11 31 -10 40 7 62 26 34 56 44 82 26 23 -17 28 -53 9
-72 -19 -19 -30 -14 -18 9 16 28 5 49 -24 49 -26 0 -46 -24 -46 -55 0 -9 14
-30 30 -47 27 -27 36 -30 72 -25 44 6 89 42 115 91 8 15 17 61 20 101 l6 73
-39 46 c-37 43 -42 45 -91 46 -44 0 -55 -4 -72 -26 -51 -65 -2 -169 54 -114
17 17 18 23 7 41 -12 18 -11 20 5 17 26 -5 29 -50 4 -72 -29 -26 -71 -23 -94
5 -15 18 -18 35 -15 71 6 59 27 84 85 100 l44 13 -51 69 c-55 75 -70 116 -70
191 0 55 30 132 55 141 23 9 18 22 -19 55 -24 20 -36 42 -41 68 -16 95 78 159
140 96 44 -43 27 -111 -26 -103 -33 4 -34 24 -2 23 34 0 42 25 19 60 -35 53
-116 13 -116 -57 0 -40 15 -65 50 -83 63 -33 140 -9 160 49 21 66 -6 144 -67
195 -42 35 -56 37 -97 16 -33 -17 -36 -18 -36 -6 0 5 14 14 30 21 37 15 38 26
4 53 -62 48 -85 187 -44 255 23 38 25 96 5 132 -20 36 -18 46 5 25 11 -10 22
-33 26 -51 3 -19 11 -34 17 -34 6 0 28 17 49 37 36 35 38 41 38 98 0 42 3 56
10 45 5 -8 10 -36 10 -62z m1837 -13 c-7 -40 -46 -96 -90 -127 l-31 -22 30 44
c17 25 38 66 48 93 22 58 52 67 43 12z m637 -13 c9 -26 28 -65 42 -86 24 -35
24 -37 5 -26 -36 19 -81 90 -81 127 0 47 16 41 34 -15z m-910 -14 c-2 -51 -18
-68 -57 -62 -27 5 -38 0 -72 -35 -21 -23 -43 -41 -47 -41 -19 0 -6 51 25 96
35 52 88 86 127 82 22 -3 25 -8 24 -40z m1248 7 c39 -26 95 -125 83 -145 -5
-8 -23 3 -51 31 -36 36 -50 43 -78 41 -18 -1 -38 3 -43 10 -14 18 -23 57 -16
74 8 22 65 16 105 -11z m-1475 -113 c-3 -50 -12 -93 -25 -118 -20 -40 -52 -75
-52 -58 0 5 -5 37 -10 72 -16 98 15 182 67 182 l26 0 -6 -78z m1656 48 c14
-16 28 -44 32 -61 7 -32 -1 -127 -14 -163 -7 -18 -10 -17 -34 19 -42 64 -65
216 -34 228 21 9 25 8 50 -23z m-1375 -52 c5 -40 -35 -113 -77 -142 -59 -41
-59 -43 -9 74 36 84 48 102 66 98 10 -2 18 -14 20 -30z m1075 15 c12 -14 87
-177 87 -190 0 -11 -22 2 -58 32 -30 26 -46 51 -58 89 -23 74 -8 109 29 69z
m-843 -41 c0 -28 -43 -78 -100 -116 -36 -24 -47 -20 -17 8 14 13 35 43 47 67
28 56 39 69 56 69 9 0 14 -11 14 -28z m631 -29 c18 -32 41 -69 53 -82 l21 -24
-25 13 c-67 34 -128 118 -103 143 13 14 22 6 54 -50z m-393 17 c7 -68 -103
-181 -243 -249 -77 -38 -234 -96 -240 -89 -2 2 42 28 97 58 102 55 169 117
231 210 26 40 113 102 136 98 9 -2 17 -14 19 -28z m145 17 c41 -18 98 -75 149
-149 44 -66 87 -100 200 -160 43 -23 76 -43 74 -45 -7 -8 -165 52 -249 95
-106 53 -186 126 -211 194 -16 42 -17 78 -1 78 3 0 20 -6 38 -13z m-1066 -37
c7 -10 15 -43 19 -72 6 -57 -19 -145 -56 -190 l-18 -23 -8 40 c-15 74 -10 210
9 239 21 31 38 33 54 6z m1991 -17 c6 -16 14 -45 18 -65 8 -48 -14 -210 -28
-202 -17 11 -57 106 -64 151 -3 23 -1 65 6 93 10 42 16 50 35 50 15 0 26 -9
33 -27z m-1550 -122 c6 -39 -68 -98 -109 -88 -11 3 -19 2 -19 -2 0 -4 -24 -8
-52 -8 l-53 -2 29 22 c44 34 180 107 191 104 6 -2 11 -14 13 -26z m1137 -7
c71 -38 135 -83 135 -96 0 -14 -111 -3 -143 13 -39 20 -77 62 -77 86 0 31 22
30 85 -3z m-2335 -103 c0 -61 -26 -137 -53 -156 -32 -22 -31 -12 4 44 29 45
31 56 26 105 -3 30 -3 57 0 60 14 13 23 -9 23 -53z m3476 -8 c-1 -59 3 -74 28
-111 33 -48 29 -66 -7 -30 -33 33 -62 143 -48 181 18 45 28 31 27 -40z m-1926
-7 c0 -24 -70 -74 -140 -100 -112 -43 -320 -74 -320 -48 0 4 39 17 88 29 51
13 130 45 192 76 107 56 180 73 180 43z m475 -22 c71 -43 174 -84 276 -110
l74 -19 -72 -3 c-128 -5 -290 44 -369 112 -73 63 -5 78 91 20z m-991 -10 c14
-13 14 -19 1 -43 -10 -21 -26 -31 -59 -40 -87 -22 -182 -9 -194 27 -2 8 11 12
47 12 39 0 61 7 98 30 52 33 84 38 107 14z m1482 -16 c35 -22 66 -33 109 -37
l60 -6 -28 -19 c-53 -36 -184 -29 -229 11 -33 29 -15 81 28 83 5 0 32 -14 60
-32z m877 -191 c8 -12 31 -40 52 -62 39 -44 68 -91 63 -106 -2 -5 -22 15 -45
44 -23 28 -57 69 -74 89 -34 40 -48 104 -34 155 7 24 9 19 16 -35 4 -35 15
-74 22 -85z m-3293 71 c0 -65 -13 -88 -121 -206 -43 -47 -47 -49 -38 -23 6 17
35 57 64 91 55 60 75 106 75 170 0 26 3 31 10 20 5 -8 10 -32 10 -52z m1574
30 c18 -30 -2 -32 -35 -3 l-33 27 29 -4 c15 -1 33 -11 39 -20z m136 -2 c-19
-13 -37 -20 -38 -15 -7 17 20 39 46 39 26 0 26 0 -8 -24z m-1022 -15 c73 -37
144 -44 352 -35 335 15 378 13 430 -18 44 -25 101 -78 86 -78 -4 0 -38 17 -74
38 l-67 37 -145 -4 c-80 -3 -228 -5 -330 -5 -175 -1 -188 0 -233 22 -26 13
-52 33 -58 43 -12 24 -7 24 39 0z m1912 1 c0 -15 -34 -40 -75 -58 -54 -23
-264 -27 -460 -8 -82 8 -167 13 -188 10 -21 -2 -73 -21 -115 -41 l-77 -36 30
31 c43 45 100 72 159 73 28 1 130 -2 226 -8 261 -15 358 -11 427 19 67 27 73
29 73 18z m-1905 -90 c39 -10 114 -15 370 -27 291 -13 353 -25 439 -85 51 -35
70 -68 80 -140 l6 -45 -13 40 c-20 60 -62 120 -99 143 -70 43 -242 71 -433 72
-272 1 -404 24 -447 78 -10 12 -4 11 22 -5 19 -12 53 -26 75 -31z m1938 18
c-53 -48 -112 -58 -378 -63 -225 -5 -383 -21 -450 -47 -61 -23 -145 -138 -145
-197 0 -9 -3 -14 -6 -10 -12 12 18 118 43 147 35 42 104 81 172 96 31 8 179
18 335 24 153 6 301 15 327 20 51 10 103 33 114 50 3 5 9 10 13 10 4 0 -8 -14
-25 -30z m-2052 -16 c87 -72 139 -89 339 -109 166 -16 237 -33 327 -76 115
-55 166 -116 197 -239 20 -75 19 -211 -1 -218 -10 -3 -13 21 -13 96 0 90 -3
104 -31 160 -35 70 -94 125 -184 170 -78 38 -121 48 -317 71 -90 11 -177 25
-193 31 -42 16 -129 83 -155 120 -28 39 -21 38 31 -6z m2130 18 c-18 -33 -111
-113 -154 -132 -27 -12 -97 -24 -192 -34 -200 -20 -247 -30 -330 -70 -134 -63
-225 -175 -225 -275 0 -72 -12 -151 -21 -145 -12 7 -11 151 2 199 29 114 103
205 203 251 76 35 192 62 293 69 206 14 295 41 381 115 53 45 56 47 43 22z
m439 -39 c0 -49 24 -95 71 -132 38 -31 43 -51 14 -51 -20 0 -74 57 -90 97 -17
40 -21 138 -5 128 6 -3 10 -22 10 -42z m-3033 -25 c-6 -70 -45 -137 -90 -152
-45 -16 -44 3 1 41 52 43 72 80 72 133 0 23 5 40 11 40 8 0 10 -19 6 -62z
m313 14 c0 -38 56 -118 145 -204 41 -40 75 -80 75 -88 0 -9 5 -21 11 -27 22
-22 6 -127 -26 -175 -16 -23 -31 -56 -35 -73 -3 -16 -10 -29 -15 -27 -19 5 -8
71 17 104 37 48 58 94 58 123 0 55 -47 118 -133 177 -14 10 -43 45 -65 79 -59
90 -59 56 0 -47 62 -107 72 -168 38 -222 -29 -47 -43 -30 -19 23 28 64 18 121
-32 188 -50 66 -65 118 -49 169 12 43 30 42 30 0z m2422 -4 c3 -84 -7 -114
-61 -182 -44 -55 -54 -98 -35 -150 29 -78 30 -83 10 -67 -25 21 -46 66 -46 98
0 26 10 47 84 175 15 26 26 56 24 65 -2 12 -14 0 -36 -39 -19 -35 -53 -74 -84
-99 -79 -61 -128 -126 -128 -166 0 -11 20 -52 45 -93 43 -73 54 -111 36 -138
-6 -9 -12 1 -20 33 -6 25 -23 64 -37 85 -14 21 -28 56 -31 78 -9 68 13 110
102 197 93 90 145 165 145 207 0 42 30 37 32 -4z m-2314 -51 c41 -72 66 -92
162 -133 83 -35 185 -100 227 -146 12 -13 31 -44 43 -70 29 -66 21 -93 -59
-188 -33 -40 -36 -44 -48 -70 -11 -23 -12 -24 -12 -4 -1 25 10 48 62 125 51
76 57 118 24 168 -32 48 -99 104 -158 130 -71 33 -74 25 -15 -41 70 -77 94
-150 63 -193 -12 -16 -13 -11 -10 36 4 48 1 59 -26 97 -17 23 -64 68 -103 100
-119 94 -198 188 -198 235 0 27 14 13 48 -46z m2222 34 c0 -33 -98 -149 -173
-204 -86 -64 -154 -136 -163 -172 -4 -14 -4 -45 -1 -68 5 -38 4 -40 -9 -23
-34 46 -9 121 67 201 57 60 50 70 -26 34 -87 -41 -175 -136 -175 -189 0 -28
42 -108 80 -149 19 -21 30 -44 30 -63 0 -17 -4 -27 -10 -23 -5 3 -10 13 -10
21 0 8 -17 33 -38 57 -61 67 -72 88 -72 138 0 35 7 56 28 85 52 72 156 144
265 184 72 27 117 66 159 136 34 56 48 67 48 35z m183 -45 c-6 -46 -3 -52 82
-199 27 -47 27 -50 16 -123 -15 -102 -14 -149 5 -187 13 -26 13 -29 1 -17 -32
32 -38 93 -22 215 6 52 4 67 -18 115 -13 30 -35 65 -47 78 l-22 23 -14 -20
c-13 -18 -13 -24 1 -51 9 -17 15 -41 13 -53 -6 -38 -40 79 -41 141 -1 56 26
137 43 127 4 -3 5 -25 3 -49z m118 -22 c24 -26 22 -38 -5 -28 -21 8 -36 45
-35 82 l1 27 8 -29 c5 -16 19 -39 31 -52z m-2846 -10 c-8 -13 -23 -24 -31 -24
-12 0 -10 7 10 31 14 17 27 40 27 52 2 16 3 14 6 -6 3 -16 -3 -39 -12 -53z
m119 54 c21 -30 21 -140 -1 -204 -9 -27 -18 -43 -21 -35 -2 7 1 31 8 52 9 27
10 43 3 50 -18 18 -41 -2 -78 -72 l-36 -70 12 -74 c13 -80 6 -152 -16 -181
-14 -17 -14 -16 -4 11 7 20 9 69 5 143 l-7 113 51 89 c44 75 52 97 53 144 2
61 8 68 31 34z m421 -115 c56 -29 190 -73 224 -73 53 0 155 -38 190 -71 76
-72 92 -175 41 -269 -16 -30 -29 -63 -30 -72 0 -22 -16 -24 -23 -4 -7 18 4 60
27 104 31 60 14 165 -37 220 -34 37 -65 49 -230 91 -166 42 -199 55 -237 95
l-24 27 29 -13 c17 -8 48 -23 70 -35z m1810 11 c-50 -42 -76 -52 -246 -93 -90
-22 -175 -49 -189 -59 -76 -57 -112 -171 -75 -242 29 -56 35 -87 19 -107 -11
-15 -13 -15 -14 -3 0 9 -13 42 -30 73 -42 82 -41 144 3 217 41 69 106 105 228
125 88 14 220 60 274 94 44 29 66 25 30 -5z m-1516 -189 c17 -19 38 -50 47
-68 20 -37 21 -111 4 -132 -21 -26 -31 -16 -15 15 25 48 19 83 -25 138 -21 28
-44 53 -50 57 -5 3 -10 10 -10 16 0 18 18 8 49 -26z m1201 29 c0 -3 -23 -31
-50 -61 -60 -65 -69 -93 -48 -151 16 -42 16 -43 -3 -26 -21 19 -26 85 -9 128
16 44 110 137 110 110z m686 -31 c-3 -10 -10 -40 -15 -68 -8 -41 -7 -53 6 -68
22 -23 12 -30 -15 -11 -12 8 -22 25 -22 36 0 31 32 128 43 128 4 0 6 -8 3 -17z
m-2597 -42 c22 -68 12 -111 -27 -117 -10 -2 -11 1 -1 12 8 10 10 37 6 86 -6
73 1 79 22 19z m-969 -606 c0 -19 -38 -58 -49 -50 -21 12 9 54 47 64 1 1 2 -6
2 -14z m4543 -13 c19 -16 23 -42 7 -42 -16 0 -50 38 -50 56 0 16 12 12 43 -14z"/>
<path d="M1364 8317 c3 -12 6 -46 6 -76 l0 -53 32 4 c18 3 45 2 60 -2 32 -10
33 -7 33 80 l0 65 -69 2 c-66 3 -68 2 -62 -20z"/>
<path d="M5355 8332 c-3 -3 -5 -35 -5 -72 l0 -66 59 1 59 0 6 50 c12 98 14 95
-54 93 -33 -1 -62 -4 -65 -6z"/>
<path d="M3230 5896 c-359 -65 -656 -306 -790 -643 -111 -277 -87 -619 61
-879 155 -271 440 -467 748 -514 112 -17 300 -8 406 20 455 121 769 518 776
980 4 248 -56 439 -195 627 -145 196 -348 332 -584 394 -100 26 -317 34 -422
15z m283 -67 c312 -33 578 -210 735 -489 127 -225 148 -532 54 -785 -90 -242
-283 -443 -522 -542 -132 -55 -230 -74 -382 -74 -335 1 -623 165 -813 465 -43
68 -89 188 -111 290 -21 96 -20 289 1 390 73 347 358 640 705 725 127 30 198
35 333 20z"/>
<path d="M3255 5806 c-201 -39 -368 -127 -505 -265 -204 -205 -294 -455 -269
-748 37 -431 391 -788 826 -832 400 -41 769 168 943 531 84 175 111 393 72
580 -72 348 -343 633 -682 717 -110 27 -290 35 -385 17z m186 -83 c7 -7 9 -23
5 -37 -8 -34 -53 -37 -65 -3 -5 12 -5 23 0 25 5 2 9 10 9 18 0 16 34 14 51 -3z
m-324 -62 c15 -40 -5 -65 -40 -52 -30 12 -38 40 -17 61 24 25 45 21 57 -9z
m652 -31 c1 -30 -14 -41 -42 -31 -29 11 -35 35 -14 55 30 31 55 20 56 -24z
m-184 -65 c97 -24 236 -100 310 -167 150 -138 226 -311 226 -513 0 -318 -221
-594 -540 -676 -94 -24 -267 -26 -355 -3 -33 8 -104 36 -156 62 -79 38 -109
60 -180 131 -94 95 -144 177 -178 296 -51 175 -30 368 59 529 40 73 152 193
227 243 70 46 207 99 293 112 80 12 216 6 294 -14z m-745 -80 c7 -8 10 -25 6
-40 -9 -34 -49 -34 -64 0 -7 15 -8 25 -2 25 6 0 10 7 10 15 0 19 34 19 50 0z
m1200 -18 c13 -39 -7 -61 -44 -47 -28 10 -33 30 -15 58 17 27 47 22 59 -11z
m-1372 -255 c11 -31 -4 -52 -36 -52 -25 0 -43 39 -28 63 17 27 52 21 64 -11z
m1542 11 c0 -7 4 -13 8 -13 10 0 8 -27 -2 -51 -8 -19 -39 -15 -57 7 -15 19 8
70 32 70 11 0 19 -6 19 -13z m-1615 -350 c-6 -24 -35 -27 -57 -5 -15 15 7 59
31 64 20 4 34 -28 26 -59z m1683 19 c13 -37 -4 -63 -35 -51 -30 11 -37 28 -22
55 17 33 45 31 57 -4z m-1628 -287 c7 -8 10 -25 6 -40 -9 -34 -49 -34 -64 0
-7 15 -8 25 -2 25 6 0 10 7 10 15 0 19 34 19 50 0z m1555 -7 c9 -9 14 -48 9
-62 -8 -20 -52 -17 -59 4 -10 31 4 67 25 65 11 -1 22 -4 25 -7z m-1377 -272
c14 -33 5 -49 -27 -51 -11 -1 -24 8 -30 22 -7 14 -7 23 -1 23 6 0 10 9 10 19
0 29 33 20 48 -13z m1200 -15 c13 -36 -5 -61 -34 -50 -24 8 -41 42 -25 47 6 2
11 9 11 16 0 25 38 15 48 -13z m-923 -219 c-4 -18 -10 -22 -28 -16 -36 10 -42
21 -27 48 26 50 69 25 55 -32z m647 44 c5 -10 7 -28 4 -40 -5 -19 -11 -22 -32
-18 -32 6 -41 26 -24 57 14 26 38 27 52 1z m-327 -74 c9 -36 -2 -61 -25 -55
-33 9 -45 30 -31 56 16 30 48 29 56 -1z"/>
<path d="M3300 5561 c-156 -23 -273 -84 -396 -205 -75 -75 -98 -106 -132 -176
-126 -261 -78 -559 123 -763 154 -156 366 -231 585 -206 104 12 162 30 260 80
216 112 360 347 360 589 0 195 -62 343 -199 480 -131 131 -278 196 -461 205
-47 2 -110 0 -140 -4z m154 -157 c24 -38 27 -49 18 -63 -7 -9 -21 -28 -31 -44
l-18 -27 -30 48 -30 49 24 41 c14 23 28 42 32 42 3 0 19 -21 35 -46z m-234 21
c17 -21 4 -65 -19 -65 -27 0 -43 24 -35 54 7 29 34 35 54 11z m447 -7 c13 -22
13 -46 -1 -57 -19 -16 -38 -10 -52 13 -22 37 30 79 53 44z m-535 -193 c2 -27
3 -51 2 -53 -1 -2 -27 4 -58 14 -52 16 -56 20 -56 48 0 17 -3 40 -6 52 -6 21
-5 21 54 5 l60 -15 4 -51z m146 53 c19 -19 14 -56 -8 -63 -41 -13 -69 43 -32
64 22 13 26 13 40 -1z m322 -33 c0 -15 -7 -26 -20 -30 -41 -13 -70 43 -33 64
25 13 53 -5 53 -34z m214 -26 c-8 -29 -15 -53 -16 -54 -2 -1 -27 -7 -56 -12
-38 -8 -52 -7 -50 1 2 6 10 32 17 58 14 49 19 52 92 57 l26 1 -13 -51z m-441
-61 c11 -15 22 -49 25 -77 6 -66 27 -68 37 -4 14 96 65 145 65 63 0 -47 20
-54 46 -15 28 42 52 29 44 -25 -1 -8 -17 -32 -36 -52 -55 -61 -43 -75 29 -34
55 31 79 38 97 26 13 -9 11 -14 -12 -35 -37 -32 -35 -45 7 -45 78 0 19 -61
-63 -65 -26 -1 -51 -3 -55 -4 -10 -1 -5 -22 6 -23 70 -5 147 -42 147 -70 0 -4
-21 -8 -47 -8 l-48 -1 33 -27 c18 -15 32 -30 32 -34 0 -19 -50 -5 -100 27 -87
55 -104 42 -50 -38 32 -48 42 -87 23 -94 -7 -2 -20 5 -30 16 -25 30 -43 26
-43 -9 0 -19 -5 -30 -14 -30 -21 0 -35 22 -47 78 -13 65 -26 74 -35 25 -9 -51
-42 -115 -57 -110 -7 2 -13 22 -15 45 -4 48 -14 53 -38 17 -24 -36 -54 -33
-54 5 0 23 12 44 45 79 25 26 45 51 45 55 0 14 -38 4 -56 -15 -35 -39 -124
-72 -124 -46 0 8 9 22 20 32 32 29 25 45 -20 45 -83 0 -32 53 64 67 68 10 76
25 18 35 -48 8 -99 35 -107 56 -4 12 2 14 30 9 45 -7 57 14 26 47 -11 12 -21
25 -21 29 0 16 50 5 81 -18 19 -13 44 -32 57 -41 41 -30 44 -2 7 51 -51 71
-48 155 3 90 31 -39 45 -32 37 16 -6 36 -5 40 10 37 10 -1 27 -15 38 -30z
m-466 -20 c21 -34 5 -79 -26 -71 -20 5 -48 53 -31 53 6 0 10 7 10 15 0 18 36
20 47 3z m1062 -38 c12 -35 -6 -60 -35 -49 -24 8 -41 42 -25 47 6 2 11 9 11
16 0 23 39 12 49 -14z m-909 -35 c20 -25 8 -50 -25 -50 -31 0 -43 20 -31 51 7
18 40 18 56 -1z m758 -37 c3 -23 -2 -29 -24 -34 -35 -9 -59 18 -43 48 16 30
63 21 67 -14z m-857 -87 c22 -16 40 -33 40 -37 0 -4 -22 -19 -50 -34 -49 -27
-50 -27 -67 -9 -9 10 -25 21 -35 24 -30 10 -22 28 24 57 23 14 43 27 45 27 1
1 20 -12 43 -28z m984 -33 c19 -13 35 -26 35 -29 0 -4 -21 -20 -46 -37 l-46
-30 -35 23 c-18 13 -39 26 -46 29 -13 5 -13 5 48 45 39 26 49 25 90 -1z m-890
-163 c0 -27 -3 -30 -30 -30 -21 0 -31 5 -33 18 -5 25 17 49 42 45 16 -2 21
-10 21 -33z m756 3 c10 -18 8 -24 -11 -40 -38 -31 -83 15 -48 50 19 19 46 14
59 -10z m-912 -48 c12 -36 -6 -60 -37 -49 -23 9 -26 19 -16 54 8 30 42 26 53
-5z m1054 -3 c17 -18 19 -37 6 -53 -18 -22 -45 -17 -57 11 -7 15 -8 25 -2 25
6 0 10 7 10 15 0 18 27 20 43 2z m-843 -74 c-1 -5 -7 -30 -14 -58 -13 -48 -15
-50 -61 -62 -27 -7 -51 -11 -53 -8 -2 2 1 29 8 59 10 51 14 56 38 57 15 0 36
4 47 9 26 11 35 12 35 3z m638 -34 c19 -4 35 -9 37 -11 2 -1 6 -25 10 -52 l8
-49 -28 7 c-15 4 -40 9 -55 12 -24 5 -28 12 -37 60 -9 52 -9 54 11 48 12 -4
36 -10 54 -15z m-477 -45 c9 -11 10 -20 2 -32 -15 -24 -44 -27 -59 -7 -28 38
27 75 57 39z m312 -16 c22 -34 -36 -66 -62 -34 -9 11 -10 20 -1 36 13 25 47
24 63 -2z m-160 -64 c15 -25 27 -49 27 -54 0 -16 -42 -80 -49 -75 -4 2 -20 22
-35 43 l-27 39 23 46 c13 25 25 46 28 46 3 0 17 -20 33 -45z m-215 -83 c13
-37 -4 -61 -36 -50 -26 10 -42 41 -24 47 7 2 12 9 12 16 0 25 38 15 48 -13z
m429 7 c8 -12 9 -19 5 -55 -3 -20 -44 -9 -60 15 -9 15 -11 22 -3 22 6 0 11 7
11 15 0 18 34 20 47 3z"/>
<path d="M3339 5044 c0 -5 -1 -25 -2 -44 -2 -33 -4 -35 -39 -35 -50 0 -56 -10
-25 -43 l27 -28 -30 -29 c-16 -16 -30 -32 -30 -36 0 -4 19 -9 43 -11 41 -3 42
-4 45 -40 3 -41 12 -47 32 -23 16 19 41 19 66 0 30 -23 42 -18 46 18 3 31 4
32 45 29 55 -3 62 12 22 49 l-33 31 34 28 c40 33 34 47 -20 52 -33 3 -35 5
-36 41 -1 53 -11 57 -43 18 l-27 -33 -37 32 c-20 18 -37 28 -38 24z"/>
<path d="M1346 1501 c-4 -40 -6 -74 -4 -75 2 -1 34 0 71 2 l68 4 -3 70 -3 70
-61 1 -62 2 -6 -74z"/>
<path d="M5330 1518 c0 -31 -3 -63 -6 -72 -5 -14 4 -16 66 -16 l73 0 -7 31
c-3 17 -6 50 -6 73 l0 42 -60 -1 -60 0 0 -57z"/>
</g>
</svg>
